<svg id="Layer_1" data-name="Layer 1" xmlns="http://www.w3.org/2000/svg" viewBox="0 0 800 800"><path d="M608.31,439.6A11.74,11.74,0,0,0,594.65,449c-10.92,59.67-49.76,112-103.88,140a11.74,11.74,0,1,0,10.78,20.85c60.53-31.3,104-89.85,116.2-156.63A11.75,11.75,0,0,0,608.31,439.6Z" fill="#0e082c"/><path d="M518,455.08a11.74,11.74,0,0,0-22.12-7.86,101.77,101.77,0,0,1-191.77,0A11.74,11.74,0,1,0,282,455.08a125.45,125.45,0,0,0,106.26,82.71v87.14a11.74,11.74,0,0,0,23.48,0V537.79A125.46,125.46,0,0,0,518,455.08Z" fill="#0e082c"/><path d="M191.69,439.6A11.74,11.74,0,0,1,205.35,449c10.92,59.67,49.76,112,103.88,140a11.74,11.74,0,1,1-10.78,20.85c-60.53-31.3-104-89.85-116.2-156.63A11.75,11.75,0,0,1,191.69,439.6Z" fill="#0e082c"/><path d="M572.76,426.89l25.12-4.72L608,420.28a16,16,0,0,0,13-16.66c-4.76-89.88-54.4-145-96.8-173.76a15.88,15.88,0,0,0-21.65,3.8l-23.64,32a15.87,15.87,0,0,0,3.88,22.66,149.86,149.86,0,0,1-38.18,268,11.73,11.73,0,0,0-8.26,11.2v53.32a8.08,8.08,0,0,0,3.21,6.43c9.66,7.29,20.27.56,20.27-8.65V575.81A172.27,172.27,0,0,0,572.76,426.89Z" fill="#0e082c"/><path d="M227.24,426.89l-25.12-4.72L192,420.28a16,16,0,0,1-13-16.66c4.76-89.88,54.4-145,96.8-173.76a15.88,15.88,0,0,1,21.65,3.8l23.64,32a15.87,15.87,0,0,1-3.88,22.66,149.86,149.86,0,0,0,38.18,268,11.73,11.73,0,0,1,8.26,11.2v53.32a8.08,8.08,0,0,1-3.21,6.43c-9.66,7.29-20.27.56-20.27-8.65V575.81A172.27,172.27,0,0,1,227.24,426.89Z" fill="#0e082c"/><rect x="359.67" y="163.34" width="80.66" height="211.99" rx="15.94" fill="#0e082c"/></svg>