<svg id="Layer_1" data-name="Layer 1" xmlns="http://www.w3.org/2000/svg" viewBox="0 0 800 800"><rect x="-2.5" y="-4.66" width="805" height="809.33" fill="#0e082c"/><path d="M452.27,373.7v4a3.66,3.66,0,0,1-3.66,3.66H422.93a2.08,2.08,0,0,0-2.08,2.08v47.88a3.7,3.7,0,0,1-3.7,3.7h-5.76a3.7,3.7,0,0,1-3.7-3.7V383.43a2.08,2.08,0,0,0-2.08-2.08H378.38a3.66,3.66,0,0,1-3.66-3.66v-4a3.66,3.66,0,0,1,3.66-3.66h70.23A3.66,3.66,0,0,1,452.27,373.7Z" fill="#fff"/><path d="M350.77,412H306.61a1.87,1.87,0,0,0-1.86,1.87v17.73a3.66,3.66,0,0,1-3.67,3.66H298a3.67,3.67,0,0,1-3.67-3.66v-28a2.08,2.08,0,0,1,2.08-2.08h54.09A10.82,10.82,0,0,0,361.33,392a10.62,10.62,0,0,0-10.56-11.62H297.16a3.63,3.63,0,0,0-2.75,1.23L269,411.64a3.66,3.66,0,0,0-.86,2.37v17.62a3.66,3.66,0,0,1-3.66,3.66h-5.22a3.66,3.66,0,0,1-3.65-3.66V414.14a3.71,3.71,0,0,0-1-2.46l-2.06-2.21L220.87,374a2.33,2.33,0,0,1,1.7-3.93h10.56a3.64,3.64,0,0,1,2.69,1.19l23.6,27.83a3.66,3.66,0,0,0,5.49-.06l23.37-27.91a2.94,2.94,0,0,1,.36-.34,4.18,4.18,0,0,1,2.57-.87h59a21.77,21.77,0,0,1,6.48,1,21,21,0,0,1-6,41.15Z" fill="#fff"/><path d="M223.93,391.59v-2A19.53,19.53,0,0,0,204.39,370H83.8a25.69,25.69,0,0,0-25.69,25.68V409A25.69,25.69,0,0,0,83.8,434.72h48.78a3.66,3.66,0,0,0,3.66-3.66v-3.14a3.66,3.66,0,0,0-3.66-3.66H83.8A15.23,15.23,0,0,1,68.57,409V395.72A15.23,15.23,0,0,1,83.8,380.49H204.39a9.09,9.09,0,0,1,9.08,9.08v2a9.09,9.09,0,0,1-7.95,9,12.19,12.19,0,0,0-1.5.08H148.28a2.07,2.07,0,0,0-2.07,2.08v29.64a2.6,2.6,0,0,0,2.59,2.6h5.27a2.6,2.6,0,0,0,2.59-2.6V413.2a2.08,2.08,0,0,1,2.08-2.07h45.65c.43,0,.86,0,1.29-.07a1.56,1.56,0,0,1,.49.19,11.76,11.76,0,0,1,5.2,9.86v11.22a2.59,2.59,0,0,0,2.59,2.59h5.27a2.59,2.59,0,0,0,2.59-2.59V421.11c0-7.63-1.45-9.19-4-12.88a2.07,2.07,0,0,1,.26-2.68A19.47,19.47,0,0,0,223.93,391.59Z" fill="#fff"/><path d="M608.86,370.7a18.13,18.13,0,0,0-4.26-.5H548.42a3.66,3.66,0,0,0-3.67,3.67v57.54a3.66,3.66,0,0,0,3.67,3.66h3.13a3.66,3.66,0,0,0,3.67-3.66v-20.3H604.6a18.61,18.61,0,0,0,18.61-18.6v-3.7A18.62,18.62,0,0,0,608.86,370.7Zm3.9,21.81a8.14,8.14,0,0,1-8.15,8.14H558.87c-3,0-3.65-1-3.65-3.65V382.74a2.07,2.07,0,0,1,2.07-2.08H604.6a8.17,8.17,0,0,1,8.16,8.15Z" fill="#fff"/><rect x="634.12" y="370.04" width="10.46" height="64.9" rx="3.66" fill="#fff"/><path d="M735.62,435.46c-3.55-.27-6.36-2.39-8.22-6.13Q717.29,408.92,707,388.58c-1.3-2.57-2.43-5.42-5.3-6.84-4.58-2.28-9.19,0-12,5.63-7.22,14.44-14.58,28.81-21.7,43.29-1.62,3.29-4.23,4.51-7.41,4.71-5.54.35-7.61-2.65-5.18-7.37,8-15.53,16.08-31,24.1-46.56,3.84-7.44,9.31-12.14,18.28-12.3,9.24-.17,15.18,4.68,19.09,12.08,8.38,15.89,16.33,32,24.38,48C743.06,432.86,740.94,435.37,735.62,435.46Z" fill="#fff"/><path d="M530.46,406.64a2,2,0,0,0-2.29,1.59,33.42,33.42,0,0,1-17.43,23.49,2,2,0,0,0,.91,3.72,2.09,2.09,0,0,0,.9-.22,37.42,37.42,0,0,0,19.5-26.28A2,2,0,0,0,530.46,406.64Z" fill="#fff"/><path d="M515.31,409.24a2,2,0,0,0-3.71-1.32,17.07,17.07,0,0,1-32.17,0,2,2,0,0,0-3.72,1.32,21.05,21.05,0,0,0,17.83,13.88v14.62a2,2,0,0,0,3.94,0V423.12A21,21,0,0,0,515.31,409.24Z" fill="#fff"/><path d="M460.56,406.64a2,2,0,0,1,2.29,1.59,33.45,33.45,0,0,0,17.43,23.49,2,2,0,0,1-.9,3.72,2,2,0,0,1-.9-.22A37.39,37.39,0,0,1,459,408.94,2,2,0,0,1,460.56,406.64Z" fill="#fff"/><path d="M524.5,404.51l4.21-.79,1.7-.32a2.69,2.69,0,0,0,2.18-2.79,36.8,36.8,0,0,0-16.24-29.16,2.67,2.67,0,0,0-3.63.64l-4,5.36a2.67,2.67,0,0,0,.65,3.81,25.14,25.14,0,0,1-6.4,44.95,2,2,0,0,0-1.39,1.88h0V437a1.33,1.33,0,0,0,.54,1.07,2,2,0,0,0,3.4-1.45V429.5A28.91,28.91,0,0,0,524.5,404.51Z" fill="#fff"/><path d="M466.53,404.51l-4.22-.79-1.7-.32a2.68,2.68,0,0,1-2.17-2.79,36.75,36.75,0,0,1,16.24-29.16,2.67,2.67,0,0,1,3.63.64l4,5.36a2.68,2.68,0,0,1-.66,3.81A25.14,25.14,0,0,0,488,426.21a2,2,0,0,1,1.39,1.88h0V437a1.36,1.36,0,0,1-.54,1.07,2,2,0,0,1-3.4-1.45V429.5A28.91,28.91,0,0,1,466.53,404.51Z" fill="#fff"/><rect x="488.75" y="360.29" width="13.53" height="35.57" rx="2.67" fill="#fff"/></svg>