<svg xmlns="http://www.w3.org/2000/svg" width="52" height="52" viewBox="0 0 52 52">
  <g id="IndustrialIcon" transform="translate(-301 -108)">
    <path id="Subtraction_3" data-name="Subtraction 3" d="M13.575,36.207h0A18.49,18.49,0,0,1,8.5,34.1l.837-3.014A3.4,3.4,0,0,0,8.769,28.1a3.445,3.445,0,0,0-2.722-1.364,3.484,3.484,0,0,0-.931.128L2.1,27.7A18.5,18.5,0,0,1,0,22.632L2.72,21.1A3.414,3.414,0,0,0,4.1,19.663h5.28a8.821,8.821,0,0,0,7.129,7.021V32.13a3.419,3.419,0,0,0-1.4,1.358l-1.536,2.718Zm9.048,0h0l-1.54-2.72a3.416,3.416,0,0,0-1.42-1.369V26.659a8.842,8.842,0,0,0,7-7H32.1A3.414,3.414,0,0,0,33.478,21.1l2.72,1.536A18.491,18.491,0,0,1,34.1,27.7l-3.014-.837a3.484,3.484,0,0,0-.931-.128A3.445,3.445,0,0,0,27.428,28.1a3.4,3.4,0,0,0-.569,2.988L27.7,34.1a18.524,18.524,0,0,1-5.073,2.1ZM16.507,23.918h0a6.1,6.1,0,0,1-4.352-4.255h4.352v4.255Zm3.156-.035h0V19.663h4.22a6.1,6.1,0,0,1-4.22,4.22ZM9.354,16.507H4.073a3.421,3.421,0,0,0-1.351-1.384L0,13.584A18.525,18.525,0,0,1,2.1,8.511l3.014.837a3.492,3.492,0,0,0,.931.128A3.445,3.445,0,0,0,8.769,8.112a3.4,3.4,0,0,0,.569-2.988L8.5,2.111a18.49,18.49,0,0,1,5.072-2.1l1.536,2.7a3.366,3.366,0,0,0,1.4,1.349V9.354a8.8,8.8,0,0,0-7.153,7.153Zm22.771,0H26.684a8.819,8.819,0,0,0-7.021-7.129V4.072a3.364,3.364,0,0,0,1.421-1.36L22.623,0A18.529,18.529,0,0,1,27.7,2.107l-.837,3.016a3.4,3.4,0,0,0,.569,2.989A3.447,3.447,0,0,0,30.15,9.476a3.483,3.483,0,0,0,.931-.128L34.1,8.511a18.529,18.529,0,0,1,2.1,5.073l-2.721,1.539a3.421,3.421,0,0,0-1.351,1.384h0Zm-8.207,0H19.663V12.154a6.1,6.1,0,0,1,4.256,4.352Zm-7.411,0H12.119a6.1,6.1,0,0,1,4.388-4.388v4.388Z" transform="translate(308.918 115.918)" fill="#fff"/>
    <path id="Subtraction_4" data-name="Subtraction 4" d="M26,52a25.878,25.878,0,0,1-14.537-4.44A26.076,26.076,0,0,1,2.043,36.12a25.966,25.966,0,0,1,2.4-24.657A26.076,26.076,0,0,1,15.88,2.043a25.966,25.966,0,0,1,24.657,2.4,26.076,26.076,0,0,1,9.42,11.439,25.966,25.966,0,0,1-2.4,24.657,26.076,26.076,0,0,1-11.439,9.42A25.837,25.837,0,0,1,26,52ZM26,2.512A23.488,23.488,0,1,0,49.488,26,23.515,23.515,0,0,0,26,2.512Z" transform="translate(301 108)" fill="#fff"/>
  </g>
</svg>
