<svg xmlns="http://www.w3.org/2000/svg" width="53.019" height="52.992" viewBox="0 0 53.019 52.992">
  <g id="EcoIcon" transform="translate(-723.14 -124.159)">
    <g id="Group_4348" data-name="Group 4348" transform="translate(-80.333 -237.315)">
      <g id="Group_4347" data-name="Group 4347" transform="translate(804 362)">
        <g id="Group_4346" data-name="Group 4346" transform="translate(14.949 15.459)">
          <g id="Group_4339" data-name="Group 4339">
            <path id="Path_3029" data-name="Path 3029" d="M29.622,17.485h-1.5a.359.359,0,0,1-.368-.311c-.368-4.163-4.259-7.44-8.86-7.44s-8.492,3.278-8.86,7.44a.38.38,0,0,1-.368.311h-1.5a.423.423,0,0,1-.263-.1.341.341,0,0,1-.105-.263,9.227,9.227,0,0,1,.841-3.23,9.783,9.783,0,0,1,2.393-3.206,11.573,11.573,0,0,1,3.523-2.177A11.7,11.7,0,0,1,18.895,7.7a12.177,12.177,0,0,1,4.338.789,10.842,10.842,0,0,1,3.523,2.177,10.44,10.44,0,0,1,2.393,3.206,9.363,9.363,0,0,1,.841,3.23.341.341,0,0,1-.105.263A.379.379,0,0,1,29.622,17.485Z" transform="translate(-7.8 -7.7)" fill="#fff"/>
          </g>
          <g id="Group_4340" data-name="Group 4340" transform="translate(0 11.903)">
            <path id="Path_3030" data-name="Path 3030" d="M18.895,61.185a12.177,12.177,0,0,1-4.338-.789,10.842,10.842,0,0,1-3.523-2.177,10.44,10.44,0,0,1-2.393-3.206,9.363,9.363,0,0,1-.841-3.23.341.341,0,0,1,.105-.263.356.356,0,0,1,.263-.1h1.5a.359.359,0,0,1,.368.311c.368,4.139,4.259,7.416,8.86,7.416s8.492-3.254,8.86-7.44a.38.38,0,0,1,.368-.311h1.5a.423.423,0,0,1,.263.1.341.341,0,0,1,.105.263,9.227,9.227,0,0,1-.841,3.23,9.783,9.783,0,0,1-2.393,3.206,11.573,11.573,0,0,1-3.523,2.177A11.7,11.7,0,0,1,18.895,61.185Z" transform="translate(-7.8 -51.4)" fill="#fff"/>
          </g>
        </g>
        <g id="Group_4345" data-name="Group 4345" transform="translate(0 0)">
          <path id="Path_3051" data-name="Path 3051" d="M48.4,20.133a.65.65,0,0,0,.387-.128c.121-.09,2.954-2.224,2.935-4.962s-2.881-4.833-3-4.921a.65.65,0,0,0-.767.005c-.121.09-2.954,2.224-2.936,4.962s2.881,4.833,3,4.921A.649.649,0,0,0,48.4,20.133Zm-2.084-5.053c-.01-1.564,1.351-2.981,2.032-3.592.8.7,2.064,2.1,2.074,3.564.011,1.564-1.351,2.981-2.032,3.592C47.586,17.946,46.324,16.541,46.314,15.081Z" transform="translate(-22.27 -10)" fill="#fff" stroke="#fff" stroke-width="1"/>
          <path id="Path_3052" data-name="Path 3052" d="M34.331,24.076c.022,0,.044,0,.066,0a.649.649,0,0,0,.6-.391c.06-.138,1.446-3.4.062-5.764s-4.911-2.745-5.061-2.76a.652.652,0,0,0-.662.388c-.06.138-1.446,3.4-.062,5.764S34.181,24.061,34.331,24.076Zm-3.976-7.545c1.045.2,2.84.79,3.578,2.049.791,1.349.321,3.257.036,4.127-1.045-.2-2.84-.79-3.578-2.049C29.6,19.31,30.07,17.4,30.355,16.532Z" transform="translate(-16.538 -11.808)" fill="#fff" stroke="#fff" stroke-width="1"/>
          <path id="Path_3053" data-name="Path 3053" d="M21.436,28.947c-2.382-1.353-5.627.078-5.763.14a.65.65,0,0,0-.379.667c.017.149.449,3.67,2.829,5.022a4.84,4.84,0,0,0,2.411.58,9.1,9.1,0,0,0,3.352-.719.65.65,0,0,0,.379-.667C24.248,33.821,23.817,30.3,21.436,28.947Zm-2.671,4.7c-1.358-.771-1.9-2.654-2.094-3.552.868-.3,2.765-.791,4.123-.018s1.907,2.66,2.095,3.556C21.882,33.979,20.035,34.369,18.765,33.647Z" transform="translate(-11.853 -16.436)" fill="#fff" stroke="#fff" stroke-width="1"/>
          <path id="Path_3054" data-name="Path 3054" d="M10.123,47.665a.65.65,0,0,0,.005.767c.089.121,2.21,2.936,4.935,2.936h.027c2.738-.019,4.833-2.881,4.921-3a.65.65,0,0,0-.005-.767c-.089-.121-2.21-2.935-4.934-2.935h-.027C12.306,44.681,10.211,47.543,10.123,47.665Zm4.93-1.7h.018c1.557,0,2.965,1.353,3.574,2.032-.7.8-2.1,2.065-3.564,2.075-1.55.013-2.981-1.351-3.592-2.032C12.187,47.233,13.593,45.972,15.053,45.962Z" transform="translate(-10 -22.147)" fill="#fff" stroke="#fff" stroke-width="1"/>
          <path id="Path_3055" data-name="Path 3055" d="M15.551,66.887a9.134,9.134,0,0,0,3.271.674,4.893,4.893,0,0,0,2.494-.613c2.361-1.385,2.745-4.911,2.76-5.061a.649.649,0,0,0-.388-.662c-.138-.06-3.4-1.446-5.764-.062s-2.745,4.911-2.76,5.061A.649.649,0,0,0,15.551,66.887Zm3.029-4.6c1.349-.791,3.257-.321,4.127-.036-.2,1.045-.79,2.84-2.049,3.578-1.349.791-3.257.321-4.127.036C16.735,64.819,17.322,63.024,18.581,62.285Z" transform="translate(-11.808 -27.715)" fill="#fff" stroke="#fff" stroke-width="1"/>
          <path id="Path_3056" data-name="Path 3056" d="M29.679,79.866a.662.662,0,0,0,.075,0c.149-.017,3.67-.449,5.022-2.829s-.078-5.626-.14-5.763a.65.65,0,0,0-.667-.379c-.149.017-3.67.449-5.023,2.829s.078,5.626.14,5.763A.65.65,0,0,0,29.679,79.866Zm.4-5.5c.773-1.36,2.66-1.907,3.556-2.095.346,1.007.736,2.855.014,4.124-.771,1.358-2.654,1.9-3.552,2.094C29.8,77.616,29.305,75.719,30.077,74.361Z" transform="translate(-16.436 -31.336)" fill="#fff" stroke="#fff" stroke-width="1"/>
          <path id="Path_3057" data-name="Path 3057" d="M47.6,74.528c-.121.09-2.954,2.224-2.935,4.962s2.881,4.833,3,4.921a.65.65,0,0,0,.767-.005c.121-.09,2.954-2.224,2.936-4.962s-2.881-4.833-3-4.921A.65.65,0,0,0,47.6,74.528Zm2.471,4.925c.01,1.564-1.351,2.981-2.032,3.592-.8-.7-2.064-2.1-2.074-3.564-.011-1.564,1.351-2.981,2.032-3.592C48.8,76.588,50.058,77.993,50.069,79.453Z" transform="translate(-22.147 -32.568)" fill="#fff" stroke="#fff" stroke-width="1"/>
          <path id="Path_3058" data-name="Path 3058" d="M66.225,80.025a.658.658,0,0,0,.066,0,.649.649,0,0,0,.6-.391c.06-.138,1.446-3.4.062-5.764s-4.911-2.745-5.061-2.76a.651.651,0,0,0-.662.388c-.06.138-1.446,3.4-.062,5.764S66.076,80.01,66.225,80.025Zm-3.976-7.545c1.045.2,2.84.79,3.578,2.049.791,1.349.321,3.257.036,4.127-1.045-.2-2.84-.79-3.578-2.049C61.494,75.258,61.964,73.351,62.249,72.481Z" transform="translate(-27.714 -31.414)" fill="#fff" stroke="#fff" stroke-width="1"/>
          <path id="Path_3059" data-name="Path 3059" d="M73.719,67.282a4.847,4.847,0,0,0,2.411.579,9.1,9.1,0,0,0,3.352-.719.65.65,0,0,0,.379-.667c-.017-.149-.449-3.67-2.829-5.022s-5.626.077-5.763.14a.65.65,0,0,0-.379.667C70.907,62.409,71.339,65.93,73.719,67.282Zm2.671-4.7c1.358.771,1.9,2.654,2.094,3.552-.868.3-2.766.79-4.123.018s-1.907-2.66-2.095-3.556C73.273,62.25,75.121,61.861,76.39,62.583Z" transform="translate(-31.336 -27.827)" fill="#fff" stroke="#fff" stroke-width="1"/>
          <path id="Path_3060" data-name="Path 3060" d="M84.411,48.718a.65.65,0,0,0-.005-.767c-.089-.121-2.21-2.936-4.935-2.936h-.027c-2.738.019-4.833,2.881-4.921,3a.65.65,0,0,0,.005.767c.089.121,2.21,2.935,4.934,2.935h.027C82.227,51.7,84.323,48.84,84.411,48.718Zm-4.93,1.7h-.018c-1.557,0-2.965-1.353-3.574-2.032.7-.8,2.1-2.065,3.564-2.075h.018c1.557,0,2.966,1.353,3.574,2.032C82.346,49.15,80.941,50.411,79.481,50.421Z" transform="translate(-32.567 -22.27)" fill="#fff" stroke="#fff" stroke-width="1"/>
          <path id="Path_3061" data-name="Path 3061" d="M71.5,34.993a9.134,9.134,0,0,0,3.271.674,4.893,4.893,0,0,0,2.494-.613c2.361-1.385,2.745-4.911,2.76-5.061a.649.649,0,0,0-.388-.662c-.138-.059-3.4-1.446-5.764-.062s-2.745,4.911-2.76,5.061A.649.649,0,0,0,71.5,34.993Zm3.029-4.6c1.349-.791,3.257-.321,4.127-.036-.2,1.045-.79,2.84-2.049,3.578-1.349.791-3.257.321-4.127.036C72.684,32.924,73.27,31.129,74.53,30.391Z" transform="translate(-31.414 -16.538)" fill="#fff" stroke="#fff" stroke-width="1"/>
          <path id="Path_3062" data-name="Path 3062" d="M66.476,15.294c-.149.017-3.67.449-5.022,2.829s.078,5.626.14,5.763a.65.65,0,0,0,.592.383.662.662,0,0,0,.075,0c.149-.017,3.67-.449,5.023-2.829s-.078-5.626-.14-5.763A.65.65,0,0,0,66.476,15.294Zm-.323,5.5c-.773,1.36-2.66,1.907-3.556,2.095-.346-1.007-.736-2.855-.014-4.124.771-1.358,2.654-1.9,3.552-2.094C66.431,17.539,66.925,19.437,66.153,20.795Z" transform="translate(-27.827 -11.854)" fill="#fff" stroke="#fff" stroke-width="1"/>
        </g>
      </g>
    </g>
    <circle id="Ellipse_27" data-name="Ellipse 27" cx="4" cy="4" r="4" transform="translate(746 147)" fill="#fff"/>
  </g>
</svg>
