<svg xmlns="http://www.w3.org/2000/svg" width="49.462" height="49.444" viewBox="0 0 49.462 49.444">
  <g id="icon_traditional" transform="translate(0 0)">
    <path id="Subtraction_5" data-name="Subtraction 5" d="M23.123,49.443h0a24.261,24.261,0,0,1-2.685-.33.918.918,0,0,0,0-.121V29.782a.759.759,0,0,0-.759-.758h-14a.757.757,0,0,0-.733.95A20.357,20.357,0,0,0,16.382,43.39a.78.78,0,0,0,.141.046h.344l.091-.031.071-.035.066-.031.041-.035.091-.076.05-.061.05-.076.036-.066a.834.834,0,0,0,.041-.1v-.06a.815.815,0,0,0,0-.162V32.815a.757.757,0,0,0-.755-.682H10.1a.741.741,0,0,0-.089-.005.727.727,0,0,0-.088.005h-.05l-.116.05-.051.025a.818.818,0,0,0-.116.092.749.749,0,0,0-.106.136v.035a.786.786,0,0,0-.05.117v.055a.868.868,0,0,0,0,.137v.041a.737.737,0,0,0,0,.167v.051a.711.711,0,0,0,.046.116v.03A17.649,17.649,0,0,0,12.4,37.057a.76.76,0,1,0,1.076-1.072,16.247,16.247,0,0,1-1.981-2.411h4.393v7.921a18.912,18.912,0,0,1-9.2-10.954H18.895V48.8a25.688,25.688,0,0,1-5.511-2.047A24.626,24.626,0,0,1,0,26.325H23.123V49.442Zm3.3-.005h0V26.325H49.462A24.771,24.771,0,0,1,30.546,48.8V30.541H42.779a18.914,18.914,0,0,1-9.2,10.954v-8h4.347a16.287,16.287,0,0,1-1.981,2.411.76.76,0,0,0,1.076,1.072,17.648,17.648,0,0,0,2.921-3.873v-.031a.65.65,0,0,0,.046-.116v-.05a.731.731,0,0,0,0-.166V32.7a.865.865,0,0,0,0-.137v-.056a.828.828,0,0,0-.05-.116V32.36a.79.79,0,0,0-.106-.137.8.8,0,0,0-.116-.091l-.051-.025-.116-.05H39.5a.725.725,0,0,0-.088-.005.743.743,0,0,0-.089.005h-6.5a.76.76,0,0,0-.7.758v9.9a.7.7,0,0,0,0,.162v.061a.632.632,0,0,0,.041.1l.035.066.05.071.05.06.086.076.041.035.066.031.07.035.091.031h.344a.8.8,0,0,0,.142-.046A20.361,20.361,0,0,0,44.523,29.975a.758.758,0,0,0-.733-.95h-14a.762.762,0,0,0-.743.758v19.2a.7.7,0,0,0,0,.137,25.027,25.027,0,0,1-2.623.32ZM49.455,23.027H26.42V0a24.669,24.669,0,0,1,2.634.323.692.692,0,0,0,0,.137V19.672a.756.756,0,0,0,.733.759h14a.758.758,0,0,0,.733-.95A20.362,20.362,0,0,0,33.134,6.054a.773.773,0,0,0-.162-.031h-.319l-.091.031-.071.035-.066.031-.041.035-.091.076-.05.061-.05.07-.035.066a.684.684,0,0,0-.041.1v.061a.685.685,0,0,0,0,.161v9.893a.762.762,0,0,0,.7.759h6.5a.848.848,0,0,0,.089,0,.828.828,0,0,0,.088,0h.05l.116-.051.051-.025a.752.752,0,0,0,.116-.091.815.815,0,0,0,.106-.136v-.036a.744.744,0,0,0,.05-.116v-.056a.853.853,0,0,0,0-.136V16.71a.747.747,0,0,0,0-.167v-.05a.712.712,0,0,0-.046-.116v-.031a17.663,17.663,0,0,0-2.921-3.872.76.76,0,1,0-1.077,1.072,16.2,16.2,0,0,1,1.982,2.411H33.579v-8a18.919,18.919,0,0,1,9.2,10.955H30.546V.651A24.759,24.759,0,0,1,49.455,23.026Zm-26.332,0H.01A24.77,24.77,0,0,1,18.92.651V18.914H6.686a18.917,18.917,0,0,1,9.2-10.955v7.922H11.494a16.3,16.3,0,0,1,1.981-2.412A.759.759,0,1,0,12.4,12.4,17.645,17.645,0,0,0,9.477,16.27V16.3a.674.674,0,0,0-.046.116v.05a.747.747,0,0,0,0,.167v.04a.868.868,0,0,0,0,.137v.056a.776.776,0,0,0,.05.116v.035a.79.79,0,0,0,.106.137.751.751,0,0,0,.116.091l.051.025.116.05h.05a.724.724,0,0,0,.088.005.743.743,0,0,0,.089-.005H16.65a.756.756,0,0,0,.753-.682V6.746a.8.8,0,0,0,0-.161V6.524a1,1,0,0,0-.041-.1l-.036-.066-.05-.076-.05-.06-.091-.076L17.1,6.12l-.066-.031-.112-.066h-.435a.707.707,0,0,0-.147.046,20.359,20.359,0,0,0-11.4,13.411.757.757,0,0,0,.733.95h14a.76.76,0,0,0,.759-.759V.464a.865.865,0,0,0,0-.137A24.664,24.664,0,0,1,23.123,0V23.026Z" fill="#fff"/>
  </g>
</svg>
