<svg xmlns="http://www.w3.org/2000/svg" width="50.279" height="55.625" viewBox="0 0 50.279 55.625">
  <path id="icon_tech" d="M37.094,52.055a3.575,3.575,0,0,1,3.566-3.569,3.521,3.521,0,0,1,1.623.4l14.611-8.239a1.518,1.518,0,0,0,.762-1.318V17.954a1.519,1.519,0,0,0-.762-1.318L40.731,7.294a1.947,1.947,0,0,1-.971-1.68V4.9a1.591,1.591,0,0,1,.8-1.389,1.645,1.645,0,0,1,.8-.214,1.587,1.587,0,0,1,.8.214L59.615,13.6a4.074,4.074,0,0,1,2.029,3.509V40.164a4.065,4.065,0,0,1-2.024,3.51L44.186,52.6a3.567,3.567,0,0,1-7.092-.544Zm1.256.005a2.3,2.3,0,0,0,2.232,2.3h.071a2.227,2.227,0,0,0,.636-.087,2.31,2.31,0,0,0,1.668-2.214,2.305,2.305,0,0,0-1.947-2.279,2.576,2.576,0,0,0-.357-.028A2.305,2.305,0,0,0,38.351,52.061Zm-7.481.66L13.428,42.637a4.148,4.148,0,0,1-2.062-3.576V16.087a4.148,4.148,0,0,1,2.057-3.576L28.912,3.553A3.565,3.565,0,1,1,32.477,7.14a3.527,3.527,0,0,1-1.338-.264L16.143,15.548a1.6,1.6,0,0,0-.8,1.379V38.22a1.606,1.606,0,0,0,.8,1.379L32.071,48.81a2.349,2.349,0,0,1,1.168,2.027v.51a1.575,1.575,0,0,1-.789,1.373,1.558,1.558,0,0,1-.79.214A1.61,1.61,0,0,1,30.87,52.72ZM30.337,2.735a2.344,2.344,0,0,0-.158.835,2.3,2.3,0,0,0,2.3,2.307,2.366,2.366,0,0,0,.483-.049A2.3,2.3,0,0,0,33.239,1.4a1.931,1.931,0,0,0-.406-.1,2.5,2.5,0,0,0-.351-.027A2.3,2.3,0,0,0,30.337,2.735Zm6.79,37.715h-3.4a.862.862,0,0,1-.735-.4l-2.112-3.4H28.707a2.258,2.258,0,1,1-2.082-3.127,2.24,2.24,0,0,1,2.082,1.41h2.664a.86.86,0,0,1,.734.4l2.112,3.4h4.1l2.112-3.4a.86.86,0,0,1,.735-.4h2.663a2.241,2.241,0,0,1,2.082-1.41,2.264,2.264,0,0,1,2.2,2.759A2.235,2.235,0,0,1,46.4,38a2.269,2.269,0,0,1-2.571-1.348H41.657l-2.112,3.4a.86.86,0,0,1-.735.4Zm-1.5-4.428a.21.21,0,0,1-.214-.215V31.545H33.728a.864.864,0,0,1-.735-.4l-2.112-3.4H28.707a2.258,2.258,0,1,1-2.082-3.128,2.242,2.242,0,0,1,2.082,1.41h2.664a.862.862,0,0,1,.734.4l2.112,3.4h4.1l2.112-3.4a.862.862,0,0,1,.735-.4h2.663A2.255,2.255,0,1,1,46.4,29.093a2.27,2.27,0,0,1-2.571-1.349H41.657l-2.112,3.4a.861.861,0,0,1-.735.4H37.127v4.261a.21.21,0,0,1-.215.215Zm0-9.122a.209.209,0,0,1-.214-.214V22.424H33.728a.862.862,0,0,1-.735-.4l-2.112-3.4H28.707A2.258,2.258,0,1,1,26.626,15.5a2.24,2.24,0,0,1,2.082,1.41h2.664a.86.86,0,0,1,.734.4l2.112,3.4h4.1l2.112-3.4a.86.86,0,0,1,.735-.4h2.663a2.241,2.241,0,0,1,2.082-1.41,2.264,2.264,0,0,1,2.2,2.759A2.237,2.237,0,0,1,46.4,19.971a2.269,2.269,0,0,1-2.571-1.349H41.657l-2.112,3.4a.86.86,0,0,1-.735.4H37.127v4.262a.209.209,0,0,1-.215.214Z" transform="translate(-11.366)" fill="#fff"/>
</svg>
