<svg xmlns="http://www.w3.org/2000/svg" width="38.517" height="38.495" viewBox="0 0 38.517 38.495">
  <g id="Eco" transform="translate(0.522 0.522)">
    <g id="Group_4348" data-name="Group 4348" transform="translate(0 0)">
      <g id="Group_4347" data-name="Group 4347">
        <g id="Group_4346" data-name="Group 4346" transform="translate(10.78 11.148)">
          <g id="Group_4339" data-name="Group 4339">
            <path id="Path_3029" data-name="Path 3029" d="M23.536,14.756H22.455a.259.259,0,0,1-.265-.224A6.238,6.238,0,0,0,15.8,9.166a6.238,6.238,0,0,0-6.389,5.365.274.274,0,0,1-.265.224H8.065a.305.305,0,0,1-.19-.069A.246.246,0,0,1,7.8,14.5a6.653,6.653,0,0,1,.607-2.329,7.055,7.055,0,0,1,1.725-2.312,8.345,8.345,0,0,1,2.54-1.57A8.434,8.434,0,0,1,15.8,7.7a8.781,8.781,0,0,1,3.128.569,7.818,7.818,0,0,1,2.54,1.57,7.529,7.529,0,0,1,1.725,2.312A6.752,6.752,0,0,1,23.8,14.48a.246.246,0,0,1-.076.19A.273.273,0,0,1,23.536,14.756Z" transform="translate(-7.8 -7.7)" fill="#fff"/>
          </g>
          <g id="Group_4340" data-name="Group 4340" transform="translate(0 8.584)">
            <path id="Path_3030" data-name="Path 3030" d="M15.8,58.456a8.781,8.781,0,0,1-3.128-.569,7.818,7.818,0,0,1-2.54-1.57A7.529,7.529,0,0,1,8.407,54,6.752,6.752,0,0,1,7.8,51.676a.246.246,0,0,1,.076-.19.257.257,0,0,1,.19-.069H9.146a.259.259,0,0,1,.265.224A6.238,6.238,0,0,0,15.8,56.99a6.224,6.224,0,0,0,6.389-5.365.274.274,0,0,1,.265-.224h1.081a.305.305,0,0,1,.19.069.246.246,0,0,1,.076.19,6.653,6.653,0,0,1-.607,2.329A7.055,7.055,0,0,1,21.469,56.3a8.345,8.345,0,0,1-2.54,1.57A8.434,8.434,0,0,1,15.8,58.456Z" transform="translate(-7.8 -51.4)" fill="#fff"/>
          </g>
        </g>
        <g id="Group_4345" data-name="Group 4345">
          <path id="Path_3051" data-name="Path 3051" d="M47.454,17.307a.469.469,0,0,0,.279-.092c.087-.065,2.13-1.6,2.117-3.578s-2.077-3.485-2.165-3.549a.469.469,0,0,0-.553,0c-.087.065-2.13,1.6-2.117,3.578s2.077,3.485,2.165,3.549A.468.468,0,0,0,47.454,17.307Zm-1.5-3.643a3.937,3.937,0,0,1,1.466-2.59,3.961,3.961,0,0,1,1.5,2.57,3.936,3.936,0,0,1-1.465,2.59A3.963,3.963,0,0,1,45.952,13.664Z" transform="translate(-28.614 -10)" fill="#fff" stroke="#fff" stroke-width="1"/>
          <path id="Path_3052" data-name="Path 3052" d="M32.749,21.59l.048,0a.468.468,0,0,0,.43-.282c.043-.1,1.043-2.454.044-4.157s-3.542-1.98-3.649-1.991a.47.47,0,0,0-.477.28c-.043.1-1.043,2.454-.044,4.157S32.641,21.579,32.749,21.59Zm-2.867-5.44a3.962,3.962,0,0,1,2.58,1.478,3.937,3.937,0,0,1,.026,2.976,3.962,3.962,0,0,1-2.58-1.478A3.937,3.937,0,0,1,29.881,16.149Z" transform="translate(-19.918 -12.743)" fill="#fff" stroke="#fff" stroke-width="1"/>
          <path id="Path_3053" data-name="Path 3053" d="M19.722,28.785c-1.717-.976-4.057.056-4.156.1a.469.469,0,0,0-.274.481c.013.107.324,2.646,2.04,3.622a3.49,3.49,0,0,0,1.739.418,6.562,6.562,0,0,0,2.417-.519.469.469,0,0,0,.273-.481C21.75,32.3,21.438,29.761,19.722,28.785ZM17.8,32.174a3.935,3.935,0,0,1-1.51-2.561,3.932,3.932,0,0,1,2.973-.013,3.937,3.937,0,0,1,1.511,2.564A3.96,3.96,0,0,1,17.8,32.174Z" transform="translate(-12.812 -19.764)" fill="#fff" stroke="#fff" stroke-width="1"/>
          <path id="Path_3054" data-name="Path 3054" d="M10.089,46.828a.468.468,0,0,0,0,.553c.064.087,1.594,2.117,3.559,2.117h.019c1.974-.014,3.485-2.077,3.549-2.165a.468.468,0,0,0,0-.553c-.065-.087-1.593-2.117-3.558-2.117h-.02C11.663,44.676,10.152,46.74,10.089,46.828ZM13.643,45.6h.013a3.952,3.952,0,0,1,2.577,1.465,3.962,3.962,0,0,1-2.57,1.5,3.953,3.953,0,0,1-2.59-1.466A3.961,3.961,0,0,1,13.643,45.6Z" transform="translate(-10 -28.426)" fill="#fff" stroke="#fff" stroke-width="1"/>
          <path id="Path_3055" data-name="Path 3055" d="M15.442,65.12a6.587,6.587,0,0,0,2.359.486,3.528,3.528,0,0,0,1.8-.442c1.7-1,1.98-3.542,1.991-3.649a.468.468,0,0,0-.28-.477c-.1-.043-2.453-1.043-4.157-.044s-1.98,3.542-1.991,3.649A.468.468,0,0,0,15.442,65.12ZM17.627,61.8a3.938,3.938,0,0,1,2.976-.026,3.962,3.962,0,0,1-1.478,2.58,3.938,3.938,0,0,1-2.976.026A3.962,3.962,0,0,1,17.627,61.8Z" transform="translate(-12.743 -36.873)" fill="#fff" stroke="#fff" stroke-width="1"/>
          <path id="Path_3056" data-name="Path 3056" d="M29.313,77.361a.477.477,0,0,0,.054,0c.107-.013,2.646-.324,3.622-2.04s-.056-4.057-.1-4.156a.469.469,0,0,0-.481-.273c-.107.013-2.646.324-3.622,2.04s.056,4.057.1,4.156A.468.468,0,0,0,29.313,77.361Zm.287-3.969a3.937,3.937,0,0,1,2.564-1.511,3.962,3.962,0,0,1,.01,2.974,3.935,3.935,0,0,1-2.561,1.51A3.935,3.935,0,0,1,29.6,73.392Z" transform="translate(-19.764 -42.366)" fill="#fff" stroke="#fff" stroke-width="1"/>
          <path id="Path_3057" data-name="Path 3057" d="M46.779,74.493c-.087.065-2.13,1.6-2.117,3.578s2.077,3.485,2.165,3.549a.468.468,0,0,0,.553,0c.087-.065,2.13-1.6,2.117-3.578s-2.077-3.485-2.165-3.549A.469.469,0,0,0,46.779,74.493Zm1.782,3.551a3.937,3.937,0,0,1-1.466,2.59,3.961,3.961,0,0,1-1.5-2.57,3.936,3.936,0,0,1,1.465-2.59A3.963,3.963,0,0,1,48.561,78.044Z" transform="translate(-28.426 -44.235)" fill="#fff" stroke="#fff" stroke-width="1"/>
          <path id="Path_3058" data-name="Path 3058" d="M64.643,77.539l.048,0a.468.468,0,0,0,.43-.282c.043-.1,1.043-2.454.044-4.157s-3.542-1.98-3.649-1.991a.469.469,0,0,0-.477.28c-.043.1-1.043,2.454-.044,4.157S64.535,77.528,64.643,77.539ZM61.776,72.1a3.962,3.962,0,0,1,2.58,1.478,3.937,3.937,0,0,1,.026,2.976,3.962,3.962,0,0,1-2.58-1.478A3.937,3.937,0,0,1,61.776,72.1Z" transform="translate(-36.873 -42.485)" fill="#fff" stroke="#fff" stroke-width="1"/>
          <path id="Path_3059" data-name="Path 3059" d="M72.929,65.495a3.5,3.5,0,0,0,1.739.418,6.558,6.558,0,0,0,2.417-.519.469.469,0,0,0,.274-.481c-.013-.108-.324-2.646-2.04-3.622s-4.057.056-4.156.1a.469.469,0,0,0-.273.481C70.9,61.98,71.212,64.519,72.929,65.495Zm1.926-3.389a3.935,3.935,0,0,1,1.51,2.561,3.936,3.936,0,0,1-2.973.013,3.937,3.937,0,0,1-1.511-2.564A3.96,3.96,0,0,1,74.855,62.106Z" transform="translate(-42.366 -37.043)" fill="#fff" stroke="#fff" stroke-width="1"/>
          <path id="Path_3060" data-name="Path 3060" d="M81.619,47.685a.468.468,0,0,0,0-.553c-.064-.087-1.594-2.117-3.559-2.117h-.019c-1.974.014-3.485,2.077-3.549,2.165a.468.468,0,0,0,0,.553c.064.087,1.593,2.117,3.558,2.117h.02C80.044,49.837,81.556,47.773,81.619,47.685Zm-3.555,1.228h-.013a3.951,3.951,0,0,1-2.577-1.465,3.962,3.962,0,0,1,2.57-1.5h.013a3.951,3.951,0,0,1,2.577,1.466A3.961,3.961,0,0,1,78.064,48.913Z" transform="translate(-44.235 -28.614)" fill="#fff" stroke="#fff" stroke-width="1"/>
          <path id="Path_3061" data-name="Path 3061" d="M71.391,33.226a6.587,6.587,0,0,0,2.359.486,3.528,3.528,0,0,0,1.8-.442c1.7-1,1.98-3.542,1.991-3.649a.468.468,0,0,0-.28-.477c-.1-.043-2.453-1.043-4.157-.044s-1.98,3.542-1.991,3.649A.468.468,0,0,0,71.391,33.226Zm2.184-3.318a3.938,3.938,0,0,1,2.976-.026,3.962,3.962,0,0,1-1.478,2.58,3.938,3.938,0,0,1-2.976.026A3.962,3.962,0,0,1,73.575,29.907Z" transform="translate(-42.485 -19.918)" fill="#fff" stroke="#fff" stroke-width="1"/>
          <path id="Path_3062" data-name="Path 3062" d="M64.913,15.293c-.107.013-2.646.324-3.622,2.04s.056,4.057.1,4.156a.468.468,0,0,0,.427.276.478.478,0,0,0,.054,0c.108-.013,2.646-.324,3.622-2.04s-.057-4.057-.1-4.156A.469.469,0,0,0,64.913,15.293Zm-.233,3.966a3.937,3.937,0,0,1-2.564,1.511,3.962,3.962,0,0,1-.01-2.974,3.935,3.935,0,0,1,2.561-1.51A3.935,3.935,0,0,1,64.681,19.26Z" transform="translate(-37.044 -12.812)" fill="#fff" stroke="#fff" stroke-width="1"/>
        </g>
      </g>
    </g>
    <circle id="Ellipse_27" data-name="Ellipse 27" cx="2.884" cy="2.884" r="2.884" transform="translate(16.105 16.091)" fill="#fff"/>
  </g>
</svg>
