<svg id="Industrial" xmlns="http://www.w3.org/2000/svg" width="41.677" height="41.677" viewBox="0 0 41.677 41.677">
  <path id="Subtraction_3" data-name="Subtraction 3" d="M10.88,29.019h0a14.819,14.819,0,0,1-4.065-1.685l.67-2.416a2.722,2.722,0,0,0-.456-2.394,2.761,2.761,0,0,0-2.182-1.093,2.792,2.792,0,0,0-.746.1l-2.416.67A14.824,14.824,0,0,1,0,18.139l2.18-1.231a2.736,2.736,0,0,0,1.1-1.149H7.516a7.07,7.07,0,0,0,5.714,5.627v4.366a2.74,2.74,0,0,0-1.119,1.088L10.88,29.018Zm7.252,0h0L16.9,26.838a2.738,2.738,0,0,0-1.138-1.1V21.367a7.086,7.086,0,0,0,5.608-5.608h4.36a2.736,2.736,0,0,0,1.1,1.149l2.18,1.231A14.82,14.82,0,0,1,27.327,22.2l-2.415-.671a2.792,2.792,0,0,0-.746-.1,2.761,2.761,0,0,0-2.182,1.093,2.722,2.722,0,0,0-.456,2.394l.67,2.415a14.846,14.846,0,0,1-4.066,1.685Zm-4.9-9.849h0a4.888,4.888,0,0,1-3.488-3.41H13.23v3.41Zm2.529-.028h0V15.759h3.382a4.887,4.887,0,0,1-3.382,3.382ZM7.5,13.23H3.264a2.742,2.742,0,0,0-1.083-1.109L0,10.887A14.847,14.847,0,0,1,1.685,6.821L4.1,7.492a2.8,2.8,0,0,0,.746.1A2.761,2.761,0,0,0,7.028,6.5a2.722,2.722,0,0,0,.456-2.394l-.67-2.415A14.819,14.819,0,0,1,10.88.007l1.231,2.165A2.7,2.7,0,0,0,13.23,3.253V7.5A7.051,7.051,0,0,0,7.5,13.23Zm18.25,0H21.386a7.068,7.068,0,0,0-5.627-5.714V3.264A2.7,2.7,0,0,0,16.9,2.174L18.131,0A14.85,14.85,0,0,1,22.2,1.688l-.67,2.417a2.723,2.723,0,0,0,.456,2.4,2.762,2.762,0,0,0,2.182,1.093,2.792,2.792,0,0,0,.746-.1l2.416-.67a14.85,14.85,0,0,1,1.684,4.066L26.83,12.121a2.742,2.742,0,0,0-1.083,1.109h0Zm-6.577,0H15.759V9.741A4.886,4.886,0,0,1,19.17,13.23Zm-5.94,0H9.713A4.886,4.886,0,0,1,13.23,9.713V13.23Z" transform="translate(6.346 6.346)" fill="#fff"/>
  <path id="Subtraction_4" data-name="Subtraction 4" d="M20.838,41.677A20.741,20.741,0,0,1,9.187,38.118a20.9,20.9,0,0,1-7.55-9.168A20.811,20.811,0,0,1,3.559,9.187a20.9,20.9,0,0,1,9.168-7.55A20.811,20.811,0,0,1,32.489,3.559a20.9,20.9,0,0,1,7.55,9.168,20.811,20.811,0,0,1-1.921,19.762,20.9,20.9,0,0,1-9.168,7.55A20.708,20.708,0,0,1,20.838,41.677Zm0-39.663A18.825,18.825,0,1,0,39.663,20.838,18.846,18.846,0,0,0,20.838,2.013Z" fill="#fff"/>
</svg>
