<svg id="Tech" xmlns="http://www.w3.org/2000/svg" width="38.35" height="42.428" viewBox="0 0 38.35 42.428">
  <path id="Union_309" data-name="Union 309" d="M19.625,39.705a2.727,2.727,0,0,1,2.719-2.723,2.68,2.68,0,0,1,1.238.3L34.727,31a1.159,1.159,0,0,0,.581-1.006v-16.3a1.157,1.157,0,0,0-.581-1.005L22.4,5.563a1.484,1.484,0,0,1-.741-1.282v-.54a1.215,1.215,0,0,1,.611-1.06,1.259,1.259,0,0,1,.61-.164,1.213,1.213,0,0,1,.611.164l13.312,7.7a3.106,3.106,0,0,1,1.548,2.677V30.636a3.1,3.1,0,0,1-1.543,2.677L25.034,40.12a2.72,2.72,0,0,1-5.409-.415Zm.958,0a1.757,1.757,0,0,0,1.7,1.755h.055a1.672,1.672,0,0,0,.485-.068A1.762,1.762,0,0,0,24.1,39.71a1.758,1.758,0,0,0-1.485-1.739,1.932,1.932,0,0,0-.272-.021A1.757,1.757,0,0,0,20.583,39.71Zm-5.707.5-13.3-7.691A3.16,3.16,0,0,1,0,29.794V12.27A3.162,3.162,0,0,1,1.569,9.543L13.383,2.711A2.719,2.719,0,1,1,16.1,5.446a2.69,2.69,0,0,1-1.021-.2L3.644,11.859a1.22,1.22,0,0,0-.607,1.052V29.153A1.224,1.224,0,0,0,3.644,30.2l12.148,7.025a1.793,1.793,0,0,1,.891,1.546v.389a1.2,1.2,0,0,1-.6,1.048,1.185,1.185,0,0,1-.6.164A1.223,1.223,0,0,1,14.876,40.212ZM14.47,2.086a1.791,1.791,0,0,0-.121.637,1.755,1.755,0,1,0,2.334-1.655,1.474,1.474,0,0,0-.31-.08,2,2,0,0,0-.267-.021A1.752,1.752,0,0,0,14.47,2.086Zm5.179,28.767H17.057a.658.658,0,0,1-.561-.3l-1.611-2.6H13.227a1.722,1.722,0,1,1-1.588-2.385,1.71,1.71,0,0,1,1.588,1.076h2.031a.657.657,0,0,1,.561.3l1.611,2.6H20.56l1.611-2.6a.657.657,0,0,1,.561-.3h2.031a1.71,1.71,0,0,1,1.588-1.076,1.727,1.727,0,0,1,1.681,2.105,1.706,1.706,0,0,1-1.308,1.309,1.731,1.731,0,0,1-1.961-1.03H23.1l-1.611,2.6a.658.658,0,0,1-.561.3ZM18.5,27.475a.16.16,0,0,1-.164-.164v-3.25H17.057a.658.658,0,0,1-.561-.3l-1.611-2.6H13.227a1.722,1.722,0,1,1-1.588-2.385,1.708,1.708,0,0,1,1.588,1.075h2.031a.657.657,0,0,1,.561.3l1.611,2.6H20.56l1.611-2.6a.657.657,0,0,1,.561-.3h2.031a1.708,1.708,0,0,1,1.588-1.075,1.726,1.726,0,0,1,1.681,2.1,1.7,1.7,0,0,1-1.308,1.309,1.73,1.73,0,0,1-1.961-1.029H23.1l-1.611,2.6a.658.658,0,0,1-.561.3H19.649v3.25a.16.16,0,0,1-.164.164Zm0-6.958a.16.16,0,0,1-.164-.164V17.1H17.057a.658.658,0,0,1-.561-.3l-1.611-2.6H13.227a1.722,1.722,0,1,1-1.588-2.385,1.71,1.71,0,0,1,1.588,1.076h2.031a.657.657,0,0,1,.561.3l1.611,2.6H20.56l1.611-2.6a.657.657,0,0,1,.561-.3h2.031a1.72,1.72,0,1,1,1.961,2.338A1.73,1.73,0,0,1,24.763,14.2H23.1l-1.611,2.6a.658.658,0,0,1-.561.3H19.649v3.25a.16.16,0,0,1-.164.164Z" fill="#fff"/>
</svg>
