<svg xmlns="http://www.w3.org/2000/svg" width="37.459" height="37.473" viewBox="0 0 37.459 37.473">
  <g id="Traditional" transform="translate(0 37.474) rotate(-90)">
    <g id="traditional_Chinese_culture" data-name="traditional Chinese culture" transform="translate(0 0)">
      <path id="Subtraction_5" data-name="Subtraction 5" d="M17.518,37.459h0a18.438,18.438,0,0,1-2.035-.25.521.521,0,0,0,0-.092V22.564a.575.575,0,0,0-.574-.575H4.3a.575.575,0,0,0-.555.72,15.424,15.424,0,0,0,8.667,10.165.62.62,0,0,0,.107.034h.26l.069-.023.053-.026.05-.023.031-.027.068-.057.039-.047.038-.057.027-.05a.512.512,0,0,0,.031-.073v-.046a.552.552,0,0,0,0-.122V24.862a.574.574,0,0,0-.572-.517H7.651a.551.551,0,0,0-.067,0,.568.568,0,0,0-.067,0H7.479l-.088.039-.039.019a.586.586,0,0,0-.088.069.554.554,0,0,0-.08.1V24.6a.577.577,0,0,0-.038.088v.042a.5.5,0,0,0,0,.1v.031a.492.492,0,0,0,0,.126v.039a.522.522,0,0,0,.034.088v.023a13.362,13.362,0,0,0,2.213,2.934.576.576,0,1,0,.816-.812,12.3,12.3,0,0,1-1.5-1.827h3.327v6a14.249,14.249,0,0,1-6.97-8.3h9.248V36.971A19.436,19.436,0,0,1,10.14,35.42a18.815,18.815,0,0,1-8.169-8.2A18.5,18.5,0,0,1,0,19.944H17.518V37.458Zm2.5,0h0V19.944H37.474A18.766,18.766,0,0,1,23.143,36.975V23.138H32.41a14.248,14.248,0,0,1-6.97,8.3V25.378h3.293a12.251,12.251,0,0,1-1.5,1.827.576.576,0,0,0,.816.812,13.4,13.4,0,0,0,2.213-2.933V25.06a.5.5,0,0,0,.034-.088v-.038a.5.5,0,0,0,0-.127v-.031a.5.5,0,0,0,0-.1v-.042a.533.533,0,0,0-.038-.087v-.027a.555.555,0,0,0-.08-.1.65.65,0,0,0-.088-.069l-.039-.019-.088-.039h-.038c-.022,0-.045,0-.067,0a.659.659,0,0,0-.067,0H24.866a.577.577,0,0,0-.533.575v7.5a.555.555,0,0,0,0,.122v.046a.513.513,0,0,0,.031.073l.027.049.038.054.039.046.065.058.031.026.05.023.053.027.069.023H25a.548.548,0,0,0,.107-.034,15.424,15.424,0,0,0,8.628-10.168.575.575,0,0,0-.555-.72H22.567a.578.578,0,0,0-.562.575V37.109a.5.5,0,0,0,0,.1,19.017,19.017,0,0,1-1.987.243ZM37.468,17.447H20.017V0a18.7,18.7,0,0,1,2,.245.66.66,0,0,0,0,.1V14.9a.572.572,0,0,0,.555.574H33.176a.574.574,0,0,0,.555-.72A15.424,15.424,0,0,0,25.1,4.587a.568.568,0,0,0-.122-.023h-.241l-.069.023-.053.026-.049.023-.031.027-.069.058-.039.046-.038.053-.027.05a.551.551,0,0,0-.031.072v.046a.563.563,0,0,0,0,.123v7.494a.576.576,0,0,0,.533.574h4.925a.551.551,0,0,0,.067,0,.568.568,0,0,0,.067,0h.038l.088-.038.039-.019a.649.649,0,0,0,.088-.069.554.554,0,0,0,.08-.1v-.027a.508.508,0,0,0,.038-.088v-.041a.5.5,0,0,0,0-.1V12.66a.5.5,0,0,0,0-.127V12.5a.5.5,0,0,0-.034-.088v-.023a13.4,13.4,0,0,0-2.213-2.933.576.576,0,0,0-.816.812,12.251,12.251,0,0,1,1.5,1.827H25.44V6.031a14.249,14.249,0,0,1,6.97,8.3H23.143V.493A18.766,18.766,0,0,1,37.468,17.445Zm-19.95,0H.008A18.765,18.765,0,0,1,14.334.493V14.33H5.066a14.249,14.249,0,0,1,6.97-8.3v6H8.708a12.25,12.25,0,0,1,1.5-1.827.576.576,0,0,0-.816-.812A13.375,13.375,0,0,0,7.18,12.326v.023a.5.5,0,0,0-.034.088v.038a.5.5,0,0,0,0,.127v.031a.5.5,0,0,0,0,.1v.042a.531.531,0,0,0,.038.087v.027a.555.555,0,0,0,.08.1.649.649,0,0,0,.088.069l.039.019.088.039h.038c.022,0,.045,0,.067,0a.659.659,0,0,0,.067,0h4.96a.575.575,0,0,0,.574-.517V5.112a.564.564,0,0,0,0-.123V4.943a.551.551,0,0,0-.031-.072l-.027-.05-.038-.058-.039-.046-.068-.058-.027-.022-.05-.023-.084-.049h-.329a.611.611,0,0,0-.112.034,15.427,15.427,0,0,0-8.635,10.16.574.574,0,0,0,.555.72H14.908a.575.575,0,0,0,.574-.574V.351a.5.5,0,0,0,0-.1A18.712,18.712,0,0,1,17.518,0V17.446Z" transform="translate(0 0)" fill="#fff"/>
    </g>
  </g>
</svg>
