<svg xmlns="http://www.w3.org/2000/svg" width="27" height="26.999" viewBox="0 0 27 26.999">
  <path id="Union_365" data-name="Union 365" d="M24.321,26.66,13.5,15.806,2.679,26.66a1.2,1.2,0,0,1-1.674,0l-.659-.635a1.93,1.93,0,0,1,0-2.207l10.7-10.475L.346,2.614a1.143,1.143,0,0,1,0-1.639L1.005.339a1.2,1.2,0,0,1,1.674,0L13.5,10.936,24.321.339A1.2,1.2,0,0,1,26,.339l.658.635a1.142,1.142,0,0,1,0,1.639l-10.7,10.729,10.7,10.475a1.928,1.928,0,0,1,0,2.207l-.659.635a1.2,1.2,0,0,1-1.673,0Z" transform="translate(0 0)" fill="#fff"/>
</svg>
