<svg xmlns="http://www.w3.org/2000/svg" width="51.532" height="57.644" viewBox="0 0 51.532 57.644">
  <g id="B" transform="translate(1.012 1)">
    <path id="Path_4046" data-name="Path 4046" d="M31.45,44.36a12.9,12.9,0,1,0,12.9-12.905A12.919,12.919,0,0,0,31.45,44.36Zm12.9-11.514A11.514,11.514,0,1,1,32.841,44.36,11.526,11.526,0,0,1,44.353,32.846Z" transform="translate(-19.598 -16.532)" fill="#5935cc" stroke="#5935cc" stroke-width="2"/>
    <path id="Path_4048" data-name="Path 4048" d="M48.24,18.816a4.423,4.423,0,0,0,4.428-4.385A4.417,4.417,0,0,0,48.264,10h-.025a4.407,4.407,0,1,0-.021,8.815ZM45.2,14.392a2.987,2.987,0,0,1,.9-2.127,3.027,3.027,0,0,1,2.136-.873h.018a3.028,3.028,0,0,1,2.144.9,2.985,2.985,0,0,1,.877,2.136,3.03,3.03,0,0,1-3.037,3h-.016a3.027,3.027,0,0,1-2.144-.9A2.986,2.986,0,0,1,45.2,14.392Z" transform="translate(-23.362 -10.001)" fill="#5935cc" stroke="#5935cc" stroke-width="2"/>
    <path id="Path_4049" data-name="Path 4049" d="M37.469,20.059l-8.821,5.093a.7.7,0,0,0,.7,1.205l8.821-5.093a.7.7,0,0,0-.7-1.205Z" transform="translate(-18.639 -13.034)" fill="#5935cc" stroke="#5935cc" stroke-width="2"/>
    <path id="Path_4050" data-name="Path 4050" d="M22.81,33.3a4.408,4.408,0,1,0-6.04,1.6,4.367,4.367,0,0,0,2.209.6,4.441,4.441,0,0,0,3.831-2.2Zm-5.338.4a3.041,3.041,0,0,1,1.556-5.654,2.982,2.982,0,0,1,1.509.409,3.041,3.041,0,0,1-.776,5.553A2.984,2.984,0,0,1,17.473,33.7Z" transform="translate(-14.467 -15.071)" fill="#5935cc" stroke="#5935cc" stroke-width="2"/>
    <path id="Path_4051" data-name="Path 4051" d="M19.847,42.122V52.308a.7.7,0,1,0,1.391,0V42.122a.7.7,0,1,0-1.391,0Z" transform="translate(-16.066 -19.568)" fill="#5935cc" stroke="#5935cc" stroke-width="2"/>
    <path id="Path_4052" data-name="Path 4052" d="M15,66.923a4.407,4.407,0,1,0,4.987-6.446,4.392,4.392,0,0,0-5.417,3.089A4.409,4.409,0,0,0,15,66.923Zm.913-2.994A3,3,0,0,1,18.8,61.706a3.051,3.051,0,0,1,2.939,3.845,3,3,0,0,1-3.7,2.112,3.052,3.052,0,0,1-2.129-3.733Z" transform="translate(-14.411 -25.318)" fill="#5935cc" stroke="#5935cc" stroke-width="2"/>
    <path id="Path_4053" data-name="Path 4053" d="M27.958,70.809a.7.7,0,0,0,.255.95l8.821,5.092a.7.7,0,0,0,.7-1.205l-8.821-5.092A.7.7,0,0,0,27.958,70.809Z" transform="translate(-18.507 -28.407)" fill="#5935cc" stroke="#5935cc" stroke-width="2"/>
    <path id="Path_4054" data-name="Path 4054" d="M47.883,77.326a4.423,4.423,0,0,0-4.428,4.385,4.417,4.417,0,0,0,4.405,4.43h.025a4.407,4.407,0,1,0,.021-8.815Zm3.037,4.424a2.987,2.987,0,0,1-.9,2.127,3.026,3.026,0,0,1-2.136.873h-.018a3.028,3.028,0,0,1-2.144-.9,2.985,2.985,0,0,1-.877-2.136,3.03,3.03,0,0,1,3.037-3H47.9a3.027,3.027,0,0,1,2.144.9A2.986,2.986,0,0,1,50.921,81.75Z" transform="translate(-23.253 -30.497)" fill="#5935cc" stroke="#5935cc" stroke-width="2"/>
    <path id="Path_4055" data-name="Path 4055" d="M66.187,70.8,57.365,75.9a.7.7,0,0,0,.7,1.205l8.821-5.093a.7.7,0,1,0-.7-1.205Z" transform="translate(-27.382 -28.483)" fill="#5935cc" stroke="#5935cc" stroke-width="2"/>
    <path id="Path_4056" data-name="Path 4056" d="M80.938,67.273a4.423,4.423,0,0,0-1.571-6.047,4.418,4.418,0,0,0-6.04,1.6,4.424,4.424,0,0,0,1.57,6.047,4.364,4.364,0,0,0,2.209.6A4.436,4.436,0,0,0,80.938,67.273Zm-6.41-3.746a3.026,3.026,0,0,1,1.848-1.409,2.992,2.992,0,0,1,2.288.308,3.037,3.037,0,1,1-4.137,1.1Z" transform="translate(-32.163 -25.412)" fill="#5935cc" stroke="#5935cc" stroke-width="2"/>
    <path id="Path_4057" data-name="Path 4057" d="M79.544,52.811V42.625a.7.7,0,1,0-1.391,0V52.811a.7.7,0,1,0,1.391,0Z" transform="translate(-33.816 -19.721)" fill="#5935cc" stroke="#5935cc" stroke-width="2"/>
    <path id="Path_4058" data-name="Path 4058" d="M81.139,29.2a4.418,4.418,0,1,0,.43,3.357A4.41,4.41,0,0,0,81.139,29.2ZM80.226,32.2a3,3,0,0,1-3.7,2.113,3.052,3.052,0,0,1-2.129-3.734,3.005,3.005,0,0,1,2.893-2.223A3.051,3.051,0,0,1,80.226,32.2Z" transform="translate(-32.216 -15.164)" fill="#5935cc" stroke="#5935cc" stroke-width="2"/>
    <path id="Path_4059" data-name="Path 4059" d="M67.572,26.353a.7.7,0,0,0-.255-.95L58.5,20.311a.7.7,0,0,0-.7,1.205l8.821,5.092a.7.7,0,0,0,.95-.255Z" transform="translate(-27.514 -13.111)" fill="#5935cc" stroke="#5935cc" stroke-width="2"/>
  </g>
</svg>
