<svg xmlns="http://www.w3.org/2000/svg" width="33" height="33" viewBox="0 0 33 33">
  <g id="icon_social_connect" transform="translate(-1503.5 -821.603)">
    <path id="Subtraction_157" data-name="Subtraction 157" d="M9.138,12.169H.773A.8.8,0,0,1,0,11.341,4.6,4.6,0,0,1,4.43,6.6H5.48a4.611,4.611,0,0,1,4.43,4.736A.8.8,0,0,1,9.138,12.169ZM4.916,5.8a2.2,2.2,0,0,1-2.143-2.25V2.25A2.2,2.2,0,0,1,4.916,0,2.2,2.2,0,0,1,7.059,2.25v1.3A2.2,2.2,0,0,1,4.916,5.8Z" transform="translate(1514.395 831.09)" fill="#fff"/>
    <path id="Subtraction_162" data-name="Subtraction 162" d="M2.4,8.672H.544A.577.577,0,0,1,0,8.08,3.259,3.259,0,0,1,3.126,4.708h.743a2.876,2.876,0,0,1,.813.118A6.189,6.189,0,0,0,2.4,8.671ZM3.468,4.134a1.561,1.561,0,0,1-1.513-1.6V1.6A1.562,1.562,0,0,1,3.468,0,1.563,1.563,0,0,1,4.984,1.6v.929A1.562,1.562,0,0,1,3.468,4.134Z" transform="translate(1510.606 832.439)" fill="#fff"/>
    <path id="Subtraction_161" data-name="Subtraction 161" d="M4.544,8.672H2.1A6.274,6.274,0,0,0,0,4.976a2.906,2.906,0,0,1,1.222-.268h.743A3.27,3.27,0,0,1,5.091,8.08.571.571,0,0,1,4.544,8.672ZM1.564,4.134a1.561,1.561,0,0,1-1.512-1.6V1.6A1.562,1.562,0,0,1,1.564,0,1.563,1.563,0,0,1,3.079,1.6v.929A1.562,1.562,0,0,1,1.564,4.134Z" transform="translate(1523.587 832.439)" fill="#fff"/>
    <g id="connection" transform="translate(1504 822.603)">
      <path id="Path_6690" data-name="Path 6690" d="M15.661,8.365a5.293,5.293,0,0,0,.506,1.455,13.122,13.122,0,0,0-7.346,7.338,5.538,5.538,0,0,0-1.455-.5,14.731,14.731,0,0,1,8.3-8.3ZM8.821,25.7a5.538,5.538,0,0,1-1.455.5,14.731,14.731,0,0,0,8.3,8.3,5.293,5.293,0,0,1,.506-1.455A13.122,13.122,0,0,1,8.821,25.7Zm16.852,7.338a5.293,5.293,0,0,1,.506,1.455A14.731,14.731,0,0,0,34.5,26.2a5.538,5.538,0,0,1-1.455-.5A13.122,13.122,0,0,1,25.7,33.042Zm.506-24.677a5.293,5.293,0,0,1-.506,1.455,13.122,13.122,0,0,1,7.346,7.338,5.538,5.538,0,0,1,1.455-.5,14.731,14.731,0,0,0-8.273-8.3Z" transform="translate(-5.234 -5.912)" fill="#fff"/>
      <circle id="Ellipse_310" data-name="Ellipse 310" cx="2" cy="2" r="2" transform="translate(14 32) rotate(-90)" fill="#fff"/>
      <circle id="Ellipse_311" data-name="Ellipse 311" cx="2" cy="2" r="2" transform="translate(14 3) rotate(-90)" fill="#fff"/>
      <circle id="Ellipse_312" data-name="Ellipse 312" cx="2" cy="2" r="2" transform="translate(32.5 17.5) rotate(180)" fill="#fff"/>
      <circle id="Ellipse_313" data-name="Ellipse 313" cx="2" cy="2" r="2" transform="translate(3.5 17.5) rotate(180)" fill="#fff"/>
    </g>
  </g>
</svg>
