<svg id="icon_news" xmlns="http://www.w3.org/2000/svg" width="16.687" height="15.61" viewBox="0 0 16.687 15.61">
  <path id="Path_4527" data-name="Path 4527" d="M3.835,14.746V4.735h10.82v6.411l1.3-1.528c0-.018.018-.018.035-.035V4.067a.667.667,0,0,0-.667-.667H3.167a.667.667,0,0,0-.667.667V15.414a.672.672,0,0,0,.4.615.7.7,0,0,0,.263.053h.457l3.688.018H10.72a4,4,0,0,1,.632-1.054l.228-.281S8.222,14.746,3.835,14.746Z" transform="translate(-2.5 -3.4)" fill="#fff"/>
  <path id="Path_4528" data-name="Path 4528" d="M26.4,35.8h-6.13a.667.667,0,0,0,0,1.335H26.38a.667.667,0,0,0,.667-.667A.652.652,0,0,0,26.4,35.8Z" transform="translate(-16.597 -30.109)" fill="#fff"/>
  <path id="Path_4529" data-name="Path 4529" d="M26.4,20.6h-6.13a.667.667,0,0,0,0,1.335H26.38a.667.667,0,0,0,.667-.667A.652.652,0,0,0,26.4,20.6Z" transform="translate(-16.597 -17.579)" fill="#fff"/>
  <path id="Path_4530" data-name="Path 4530" d="M26.4,51h-6.13a.667.667,0,1,0,0,1.335H26.38a.667.667,0,0,0,.667-.667A.642.642,0,0,0,26.4,51Z" transform="translate(-16.597 -42.639)" fill="#fff"/>
  <path id="Path_4531" data-name="Path 4531" d="M53.638,76.89l-.386,1.581a.378.378,0,0,0,.509.439l1.493-.65a2.614,2.614,0,0,0,.72-.492L53.989,76.1A3.193,3.193,0,0,0,53.638,76.89Z" transform="translate(-44.329 -63.331)" fill="#fff"/>
  <path id="Path_4532" data-name="Path 4532" d="M68.266,42.892l-.755-.632a.841.841,0,0,0-1.194.105L62.4,47l2.037,1.721,3.934-4.637A.856.856,0,0,0,68.266,42.892Z" transform="translate(-51.879 -35.269)" fill="#fff"/>
</svg>
