<svg xmlns="http://www.w3.org/2000/svg" width="64.419" height="51.684" viewBox="0 0 64.419 51.684">
  <g id="icon_import_image" transform="translate(-72.143 -416.946)">
    <g id="Group_5451" data-name="Group 5451" transform="translate(69 406.2)">
      <path id="Path_6702" data-name="Path 6702" d="M139.454,571.5l11.888,9.671,8.454-3.217,10.888,7.729v5.159H132V577.954Z" transform="translate(-119.254 -538.056)" fill="#72748b"/>
      <path id="Path_6703" data-name="Path 6703" d="M285.171,544.435a4.836,4.836,0,1,1-4.836-4.836A4.835,4.835,0,0,1,285.171,544.435Z" transform="translate(-233.72 -512.61)" fill="#72748b"/>
      <g id="Group_5450" data-name="Group 5450" transform="translate(51.255 10.746)">
        <path id="Path_6704" data-name="Path 6704" d="M67.079,407.2H63v16.307h4.079V407.2Z" transform="translate(-56.886 -407.2)" fill="#72748b"/>
        <path id="Path_6705" data-name="Path 6705" d="M15.307,471.2H-1v4.079H15.307V471.2Z" transform="translate(1 -465.086)" fill="#72748b"/>
      </g>
      <path id="Path_6706" data-name="Path 6706" d="M47.131,475.9H85.016v3.832H47.131V517.7H97.759V492.6h3.831v25.1a3.842,3.842,0,0,1-3.831,3.831H47.131A3.842,3.842,0,0,1,43.3,517.7V479.719A3.847,3.847,0,0,1,47.131,475.9Z" transform="translate(-40.157 -459.099)" fill="#72748b"/>
    </g>
  </g>
</svg>
