<svg xmlns="http://www.w3.org/2000/svg" width="61.501" height="60.657" viewBox="0 0 61.501 60.657">
  <g id="Group_4792" data-name="Group 4792" transform="translate(1 1)">
    <text id="NFT" transform="translate(30.089 34.72)" fill="#5935cc" font-size="13" font-family="BarlowSemiCondensed-Bold, Barlow" font-weight="700"><tspan x="-10.394" y="0">NFT</tspan></text>
    <g id="Group_4635" data-name="Group 4635" transform="translate(0 0)">
      <path id="Union_340" data-name="Union 340" d="M33.6,58.657V53.122h1.925v5.535Zm-15.389,0V53.121h1.925v5.536Zm10.259,0V53.12h1.925v5.536Zm10.26,0V53.119h1.925v5.536Zm-15.389,0V53.119h1.925v5.536ZM53.963,40.413V38.488H59.5v1.925ZM0,40.413V38.488H5.538v1.925Zm53.963-5.128V33.359H59.5v1.925ZM0,35.285V33.359H5.538v1.925Zm53.963-5.129V28.231H59.5v1.924ZM0,30.155V28.231H5.538v1.924Zm53.963-5.132V23.1H59.5v1.925ZM0,25.024V23.1H5.538v1.925ZM53.963,19.9V17.97H59.5V19.9ZM0,19.9V17.97H5.538V19.9ZM33.6,5.538V0h1.925V5.538Zm-15.389,0V0h1.925V5.538Zm10.259,0V0h1.925V5.537Zm10.26,0V0h1.925V5.536Zm-15.389,0V0h1.925V5.536Z" transform="translate(0 0)" fill="#5935cc" stroke="#5935cc" stroke-width="2"/>
      <g id="Group_4627" data-name="Group 4627" transform="translate(10.24 10.003)">
        <path id="Path_4045" data-name="Path 4045" d="M840.772,535.62l6.963,6.963v21.709l-6.963,6.963H819.063l-6.963-6.963V542.583l6.963-6.963h21.709m.573-1.39h-22.86l-7.776,7.776v22.86l7.776,7.776h22.86l7.776-7.776v-22.86l-7.776-7.776Z" transform="translate(-810.71 -534.23)" fill="#5935cc" stroke="#5935cc" stroke-width="2"/>
      </g>
    </g>
  </g>
</svg>
