<svg xmlns="http://www.w3.org/2000/svg" width="23.71" height="23.657" viewBox="0 0 23.71 23.657">
  <g id="search" transform="translate(225)">
    <g id="Group_13" data-name="Group 13" transform="translate(-225 0)">
      <g id="Group_14" data-name="Group 14" transform="translate(0)">
        <path id="Path_9" data-name="Path 9" d="M-20.734-23.037-25.863-28.1a9.9,9.9,0,0,0,1.9-5.869A9.94,9.94,0,0,0-26.9-41.05a9.94,9.94,0,0,0-7.081-2.935,9.94,9.94,0,0,0-7.081,2.935,10.027,10.027,0,0,0,0,14.163,9.925,9.925,0,0,0,7.081,2.935,9.907,9.907,0,0,0,5.869-1.9l5.129,5.062a1.544,1.544,0,0,0,1.117.467,1.544,1.544,0,0,0,1.117-.467,1.615,1.615,0,0,0,.467-1.125A1.521,1.521,0,0,0-20.734-23.037Zm-8.012-5.694a7.332,7.332,0,0,1-5.237,2.173,7.361,7.361,0,0,1-5.237-2.173,7.425,7.425,0,0,1,0-10.475,7.361,7.361,0,0,1,5.237-2.173,7.361,7.361,0,0,1,5.237,2.173A7.409,7.409,0,0,1-28.745-28.731Z" transform="translate(43.992 43.985)" fill="#fff"/>
      </g>
    </g>
  </g>
</svg>
