<svg id="Search" xmlns="http://www.w3.org/2000/svg" width="24.557" height="24.502" viewBox="0 0 24.557 24.502">
  <g id="Group_13" data-name="Group 13" transform="translate(0 0)">
    <g id="Group_14" data-name="Group 14" transform="translate(0)">
      <path id="Path_9" data-name="Path 9" d="M-19.9-22.289l-5.312-5.243a10.253,10.253,0,0,0,1.964-6.079,10.3,10.3,0,0,0-3.039-7.334,10.3,10.3,0,0,0-7.334-3.039,10.3,10.3,0,0,0-7.334,3.039,10.385,10.385,0,0,0,0,14.668,10.279,10.279,0,0,0,7.334,3.039,10.261,10.261,0,0,0,6.079-1.973l5.312,5.243a1.6,1.6,0,0,0,1.157.484,1.6,1.6,0,0,0,1.157-.484,1.672,1.672,0,0,0,.484-1.166A1.576,1.576,0,0,0-19.9-22.289Zm-8.3-5.9a7.593,7.593,0,0,1-5.424,2.25,7.624,7.624,0,0,1-5.424-2.25,7.69,7.69,0,0,1,0-10.849,7.624,7.624,0,0,1,5.424-2.25,7.624,7.624,0,0,1,5.424,2.25A7.673,7.673,0,0,1-28.2-28.187Z" transform="translate(43.992 43.985)" fill="#72748b"/>
    </g>
  </g>
</svg>
