<svg xmlns="http://www.w3.org/2000/svg" width="53.078" height="37.42" viewBox="0 0 53.078 37.42">
  <g id="Group_4791" data-name="Group 4791" transform="translate(0 1)">
    <g id="Group_4611" data-name="Group 4611" transform="translate(0 -1)">
      <g id="wallet" transform="translate(0)">
        <g id="Group_4395" data-name="Group 4395" transform="translate(0)">
          <path id="Path_3122" data-name="Path 3122" d="M33.175,13.174h5.083a1.637,1.637,0,0,0,1.5-1.644V8.988h-6.09a1.221,1.221,0,0,1-1.346-1.2,1.34,1.34,0,0,1,1.346-1.345h6.09V5.186a1.659,1.659,0,0,0-1.645-1.644H-1.814A1.659,1.659,0,0,0-3.458,5.186V34.234a1.659,1.659,0,0,0,1.645,1.645H38.108a1.659,1.659,0,0,0,1.645-1.645V28.722a1.637,1.637,0,0,0-1.5-1.645H33.175a4.088,4.088,0,0,1-4.186-4.186V17.36A4.179,4.179,0,0,1,33.175,13.174Zm8.821,0h.9a4.278,4.278,0,0,1,4.186,4.186v5.531a4.179,4.179,0,0,1-4.186,4.186H42a6.358,6.358,0,0,1,.3,1.645v5.512a4.179,4.179,0,0,1-4.186,4.186H-1.814A4.278,4.278,0,0,1-6,34.234V5.186A4.278,4.278,0,0,1-1.814,1H38.108a4.179,4.179,0,0,1,4.186,4.186V11.53A5.375,5.375,0,0,1,42,13.174Zm.9,2.542H33.175A1.659,1.659,0,0,0,31.53,17.36v5.531a1.659,1.659,0,0,0,1.645,1.644h9.718a1.659,1.659,0,0,0,1.645-1.644V17.36A1.659,1.659,0,0,0,42.892,15.716Z" transform="translate(6 -1)" fill="#5935cc"/>
          <path id="Path_3123" data-name="Path 3123" d="M248.434,113a2.572,2.572,0,0,1,2.549,2.549,2.474,2.474,0,0,1-2.549,2.433A2.376,2.376,0,0,1,246,115.549,2.475,2.475,0,0,1,248.434,113Z" transform="translate(-206.401 -96.365)" fill="#5935cc"/>
        </g>
      </g>
      <path id="Path_3734" data-name="Path 3734" d="M10615.5,5551.094h6.19l4.227-3.794h12.217" transform="translate(-10613.616 -5538.599)" fill="none" stroke="#5935cc" stroke-width="2.6"/>
      <path id="Path_3737" data-name="Path 3737" d="M10615.5,5547.3h6.19l4.227,3.794h7.125" transform="translate(-10612.95 -5522.073)" fill="none" stroke="#5935cc" stroke-width="2.6"/>
      <path id="Path_3735" data-name="Path 3735" d="M10631.151,5547.3h11.331" transform="translate(-10628.949 -5528.065)" fill="none" stroke="#5935cc" stroke-width="2.6"/>
      <g id="Path_3738" data-name="Path 3738" transform="translate(23.521 5.172)" fill="none">
        <path d="M3.329,0A3.328,3.328,0,1,1,0,3.328,3.329,3.329,0,0,1,3.329,0Z" stroke="none"/>
        <path d="M 3.328537702560425 2.599998474121094 C 2.926817655563354 2.599998474121094 2.599997520446777 2.926798343658447 2.599997520446777 3.328498363494873 C 2.599997520446777 3.730198383331299 2.926817655563354 4.056998252868652 3.328537702560425 4.056998252868652 C 3.730257749557495 4.056998252868652 4.057077407836914 3.730198383331299 4.057077407836914 3.328498363494873 C 4.057077407836914 2.926798343658447 3.730257749557495 2.599998474121094 3.328537702560425 2.599998474121094 M 3.328537702560425 -1.430511474609375e-06 C 5.166837692260742 -1.430511474609375e-06 6.657077789306641 1.490218162536621 6.657077789306641 3.328498363494873 C 6.657077789306641 5.166778564453125 5.166837692260742 6.656998157501221 3.328537702560425 6.656998157501221 C 1.490237712860107 6.656998157501221 -2.384185791015625e-06 5.166778564453125 -2.384185791015625e-06 3.328498363494873 C -2.384185791015625e-06 1.490218162536621 1.490237712860107 -1.430511474609375e-06 3.328537702560425 -1.430511474609375e-06 Z" stroke="none" fill="#5935cc"/>
      </g>
      <g id="Path_3739" data-name="Path 3739" transform="translate(12.204 15.824)" fill="none">
        <path d="M3.329,0A3.328,3.328,0,1,1,0,3.328,3.329,3.329,0,0,1,3.329,0Z" stroke="none"/>
        <path d="M 3.328537702560425 2.599998474121094 C 2.926817655563354 2.599998474121094 2.599997520446777 2.926798343658447 2.599997520446777 3.328498363494873 C 2.599997520446777 3.730198383331299 2.926817655563354 4.056998252868652 3.328537702560425 4.056998252868652 C 3.730257749557495 4.056998252868652 4.057077407836914 3.730198383331299 4.057077407836914 3.328498363494873 C 4.057077407836914 2.926798343658447 3.730257749557495 2.599998474121094 3.328537702560425 2.599998474121094 M 3.328537702560425 -1.430511474609375e-06 C 5.166837692260742 -1.430511474609375e-06 6.657077789306641 1.490218162536621 6.657077789306641 3.328498363494873 C 6.657077789306641 5.166778564453125 5.166837692260742 6.656998157501221 3.328537702560425 6.656998157501221 C 1.490237712860107 6.656998157501221 -2.384185791015625e-06 5.166778564453125 -2.384185791015625e-06 3.328498363494873 C -2.384185791015625e-06 1.490218162536621 1.490237712860107 -1.430511474609375e-06 3.328537702560425 -1.430511474609375e-06 Z" stroke="none" fill="#5935cc"/>
      </g>
      <g id="Path_3740" data-name="Path 3740" transform="translate(18.551 25.692)" fill="none">
        <path d="M3.329,0A3.328,3.328,0,1,1,0,3.328,3.329,3.329,0,0,1,3.329,0Z" stroke="none"/>
        <path d="M 3.328537702560425 2.599998474121094 C 2.926817655563354 2.599998474121094 2.599997520446777 2.926798343658447 2.599997520446777 3.328498363494873 C 2.599997520446777 3.730198383331299 2.926817655563354 4.056998252868652 3.328537702560425 4.056998252868652 C 3.730257749557495 4.056998252868652 4.057077407836914 3.730198383331299 4.057077407836914 3.328498363494873 C 4.057077407836914 2.926798343658447 3.730257749557495 2.599998474121094 3.328537702560425 2.599998474121094 M 3.328537702560425 -1.430511474609375e-06 C 5.166837692260742 -1.430511474609375e-06 6.657077789306641 1.490218162536621 6.657077789306641 3.328498363494873 C 6.657077789306641 5.166778564453125 5.166837692260742 6.656998157501221 3.328537702560425 6.656998157501221 C 1.490237712860107 6.656998157501221 -2.384185791015625e-06 5.166778564453125 -2.384185791015625e-06 3.328498363494873 C -2.384185791015625e-06 1.490218162536621 1.490237712860107 -1.430511474609375e-06 3.328537702560425 -1.430511474609375e-06 Z" stroke="none" fill="#5935cc"/>
      </g>
    </g>
  </g>
</svg>
