<svg xmlns="http://www.w3.org/2000/svg" width="65.533" height="60.707" viewBox="0 0 65.533 60.707">
  <g id="cyptopia_pets_logo_white" transform="translate(19554.488 965.297)">
    <g id="Group_8311" data-name="Group 8311">
      <g id="Group_8308" data-name="Group 8308" transform="translate(-19540.502 -942.146) rotate(-45)">
        <path id="Path_14368" data-name="Path 14368" d="M8.9,12.957c1.84-.486,4.686-2.754,6.037-5.914s.984-6.3-.7-6.936S9.671,1.925,7.758,1.674,3.362-.36,1.08.491s-.5,6.965,1.257,9.414,3.647,3.822,6.56,3.052" transform="translate(11.141 26.77) rotate(-135)" fill="#fff"/>
        <path id="Path_14369" data-name="Path 14369" d="M.708,5.656c.985.8,2.631.258,3.679-1.2S5.485,1.174,4.5.374,1.867.1.819,1.557s-1.1,3.3-.112,4.1" transform="translate(20.917 22.268) rotate(-135)" fill="#fff"/>
        <path id="Path_14370" data-name="Path 14370" d="M1.843.091C.277.57-.453,2.817.3,5.093c.722,2.28,2.559,3.722,4.1,3.226S6.609,5.593,5.888,3.334C5.14,1.079,3.4-.388,1.843.091" transform="translate(14.658 10.32) rotate(-135)" fill="#fff"/>
        <path id="Path_14371" data-name="Path 14371" d="M.947,4.416C2.055,5.794,3.8,6.211,4.7,5.382s.784-2.61-.344-3.978S1.564-.412.621.417s-.8,2.625.325,4" transform="translate(7.655 9.527) rotate(-135)" fill="#fff"/>
        <path id="Path_14372" data-name="Path 14372" d="M.1,3.6C-.326,5.943.624,8.151,2.224,8.521S5.464,7.292,5.9,4.967C6.3,2.645,5.44.446,3.866.059S.586,1.253.1,3.6" transform="translate(20.282 15.684) rotate(-135)" fill="#fff"/>
      </g>
      <g id="Icon_WHITE" data-name="Icon WHITE" transform="translate(-19554.488 -965.297)">
        <path id="Path_10407" data-name="Path 10407" d="M502.553,439.434a1.74,1.74,0,0,0-2.025,1.394,29.527,29.527,0,0,1-15.4,20.755,1.74,1.74,0,1,0,1.6,3.091,33.015,33.015,0,0,0,17.226-23.22A1.742,1.742,0,0,0,502.553,439.434Z" transform="translate(-438.905 -407.942)" fill="#fff"/>
        <path id="Path_10408" data-name="Path 10408" d="M316.285,441.4a1.74,1.74,0,1,0-3.28-1.165,15.087,15.087,0,0,1-28.429,0A1.74,1.74,0,1,0,281.3,441.4a18.6,18.6,0,0,0,15.753,12.261v12.918a1.74,1.74,0,0,0,3.481,0V453.663A18.6,18.6,0,0,0,316.285,441.4Z" transform="translate(-266.025 -407.615)" fill="#fff"/>
        <path id="Path_10409" data-name="Path 10409" d="M183.492,439.434a1.741,1.741,0,0,1,2.025,1.394,29.526,29.526,0,0,0,15.4,20.755,1.74,1.74,0,1,1-1.6,3.091,33.016,33.016,0,0,1-17.226-23.22,1.742,1.742,0,0,1,1.4-2.019Z" transform="translate(-181.607 -407.942)" fill="#fff"/>
        <path id="Path_10410" data-name="Path 10410" d="M456.572,256.776l3.724-.7,1.5-.28a2.372,2.372,0,0,0,1.927-2.47,32.47,32.47,0,0,0-14.35-25.759,2.354,2.354,0,0,0-3.21.563l-3.5,4.744a2.353,2.353,0,0,0,.575,3.359,22.216,22.216,0,0,1-5.66,39.73,1.739,1.739,0,0,0-1.224,1.66v7.9a1.2,1.2,0,0,0,.476.953,1.789,1.789,0,0,0,3.005-1.282v-6.346A25.538,25.538,0,0,0,456.572,256.776Z" transform="translate(-398.195 -227.168)" fill="#fff"/>
        <path id="Path_10411" data-name="Path 10411" d="M186.128,256.776l-3.724-.7-1.5-.28a2.372,2.372,0,0,1-1.927-2.47,32.47,32.47,0,0,1,14.35-25.759,2.354,2.354,0,0,1,3.21.563l3.5,4.744a2.353,2.353,0,0,1-.575,3.359,22.216,22.216,0,0,0,5.66,39.73,1.739,1.739,0,0,1,1.225,1.66v7.9a1.2,1.2,0,0,1-.476.953,1.789,1.789,0,0,1-3-1.282v-6.346A25.538,25.538,0,0,1,186.128,256.776Z" transform="translate(-178.972 -227.168)" fill="#fff"/>
      </g>
    </g>
  </g>
</svg>
