<svg xmlns="http://www.w3.org/2000/svg" xmlns:xlink="http://www.w3.org/1999/xlink" width="2048" height="2048" viewBox="0 0 2048 2048">
  <defs>
    <clipPath id="clip-pirate_cryptopia_logo">
      <rect width="2048" height="2048"/>
    </clipPath>
  </defs>
  <g id="pirate_cryptopia_logo" clip-path="url(#clip-pirate_cryptopia_logo)">
    <path id="Union_1059" data-name="Union 1059" d="M989.74,2004.353a53.888,53.888,0,0,1-44.014-44.062V1564.129a567.894,567.894,0,0,1-480.588-376.105A53.9,53.9,0,0,1,565.41,1152.26c84.039,239.7,346.269,365.821,585.71,281.7a459.735,459.735,0,0,0,281.387-281.7,53.9,53.9,0,0,1,100,35.771,566.551,566.551,0,0,1-480.588,376.105v396.155a53.8,53.8,0,0,1-62.179,44.062Zm172.688-74.383V1698.823a54.152,54.152,0,0,1,37.471-50.948c358.848-113.831,557.585-497.329,443.879-856.579a682.372,682.372,0,0,0-116.453-218.591c-10.616-12.893-21.247-25.435-31.892-37.463l-.121.043a650.073,650.073,0,0,1-14.5,72.369,297.38,297.38,0,0,1-25.322,64.647c-38.456,72.426-8.526,137.044,1.4,154.922,4.024,7.25,45.134,88.467,45.134,88.467a35.408,35.408,0,0,1-.014,31.692L1483.326,984.7a35.371,35.371,0,0,1-26.6,19.17l-89.684,13.95c-82.049,10.714-92.081,102.4-92.081,102.4l-11.215,105.41c-2.855,26.856-19.964,50.369-45.006,60.426q-2.74,1.094-5.479,2.143a8.331,8.331,0,0,1-11.308-7.779V1186.2a11.248,11.248,0,0,0-11.245-11.249h-13.192a11.242,11.242,0,0,0-11.237,11.249v103.232a17.632,17.632,0,0,1-13.705,17.135c-7.684,1.786-15.29,3.364-22.767,4.764a17.489,17.489,0,0,1-20.6-17.278v-72.14a11.248,11.248,0,0,0-11.245-11.249h-13.192a11.242,11.242,0,0,0-11.237,11.249V1302.9a17.584,17.584,0,0,1-16.446,17.514c-8.083.536-15.575.886-22.338,1.1a17.508,17.508,0,0,1-18.051-17.542v-82.061a11.242,11.242,0,0,0-11.237-11.249H992.9a11.244,11.244,0,0,0-11.245,11.249v82.061a17.508,17.508,0,0,1-18.05,17.542c-6.764-.214-14.255-.564-22.339-1.1a17.584,17.584,0,0,1-16.439-17.514v-80.989a11.248,11.248,0,0,0-11.245-11.249H900.391a11.241,11.241,0,0,0-11.237,11.249v72.14a17.5,17.5,0,0,1-20.613,17.278c-7.47-1.4-15.076-2.978-22.766-4.764a17.626,17.626,0,0,1-13.7-17.135V1186.2a11.248,11.248,0,0,0-11.245-11.249H807.639A11.242,11.242,0,0,0,796.4,1186.2v94.21a8.331,8.331,0,0,1-11.308,7.779q-2.75-1.05-5.479-2.143c-25.042-10.057-42.151-33.57-45.013-60.426l-11.216-105.41s-10.024-91.682-92.074-102.4l-89.684-13.95a35.359,35.359,0,0,1-26.6-19.17l-18.693-37.313a35.414,35.414,0,0,1-.014-31.692s41.11-81.218,45.134-88.467c9.924-17.878,39.862-82.5,1.406-154.922a296.648,296.648,0,0,1-25.321-64.647,651.567,651.567,0,0,1-14.5-72.369l-.114-.043c-10.652,12.029-21.276,24.571-31.892,37.463A682.53,682.53,0,0,0,354.57,791.3c-113.7,359.249,85.032,742.747,443.887,856.579a54.173,54.173,0,0,1,37.471,50.948V1929.97c0,43.043-32.177,54.491-56.079,54.491-30,0-50.607-26.313-50.157-54.491V1737.035C441.107,1631.5,240.986,1366.6,218.14,1059.885l-113.449-21.428-45.819-8.671a72.84,72.84,0,0,1-58.754-75.6A998.428,998.428,0,0,1,437.84,164.036C441.214,161.772,656.762.207,998.857.007V0l.321.007L999.492,0V.007c342.1.2,557.65,161.765,561.024,164.029A998.448,998.448,0,0,1,1998.24,954.182a72.855,72.855,0,0,1-58.755,75.6l-45.819,8.671-113.442,21.428c-22.845,306.716-222.981,571.619-511.559,677.15V1929.97c.449,28.178-20.012,54.491-52.015,54.491C1188.91,1984.461,1162.428,1968.85,1162.428,1929.97ZM999.492,1091.483a34.034,34.034,0,0,1,15.432,4.429c17.779,10.249,44.221,20.449,65.589,7.614,35.674-21.428,21.4-73.175-21.4-136.588-31.45-46.577-51.277-51.2-59.618-50.391v.058c-.093-.014-.214-.014-.314-.029-.1.014-.221.014-.321.029v-.058c-8.34-.806-28.167,3.814-59.611,50.391-42.809,63.412-57.078,115.159-21.4,136.588,21.369,12.835,47.81,2.635,65.589-7.614a33.983,33.983,0,0,1,15.425-4.429v-.05c.107,0,.214.022.321.022s.207-.022.314-.022Zm187.943-409.369c-81.735,22.314-128.425,42.048-128.425,107.139,0,78.568,79.381,142.852,164.1,142.852s149.828-57.141,149.828-128.567c0-54.129-19.719-131.84-116.638-131.831C1236.674,671.709,1213.867,674.9,1187.435,682.115ZM625.412,803.538c0,71.426,65.111,128.567,149.829,128.567s164.1-64.283,164.1-142.852c0-65.091-46.689-84.825-128.425-107.139-26.442-7.219-49.234-10.408-68.865-10.407C645.15,671.71,625.412,749.413,625.412,803.538Zm758.936,1053.188v.007a54.314,54.314,0,0,1,24.971-59.562,905.144,905.144,0,0,0,469.814-636.5,53.168,53.168,0,1,1,104.73,18.406l-.149.836a1013.513,1013.513,0,0,1-525.6,712.114,56.08,56.08,0,0,1-24.265,5.956A53.984,53.984,0,0,1,1384.348,1856.726ZM539.78,1892.005h.014A1012.725,1012.725,0,0,1,14.743,1179.892a52.8,52.8,0,1,1,102.983-23.37q.46,2.057.763,4.135A905.975,905.975,0,0,0,588.3,1797.16a53.267,53.267,0,1,1-48.516,94.846Z" transform="translate(25 21)" fill="#fff" stroke="rgba(0,0,0,0)" stroke-miterlimit="10" stroke-width="1"/>
  </g>
</svg>
