<svg id="icon_social_insta_color" xmlns="http://www.w3.org/2000/svg" width="26.692" height="25.477" viewBox="0 0 26.692 25.477">
  <g id="Group_4841" data-name="Group 4841" transform="translate(0 0)">
    <path id="Path_5436" data-name="Path 5436" d="M1046.094,303.091h-10.228a8.241,8.241,0,0,1-8.232-8.232v-9.013a8.242,8.242,0,0,1,8.232-8.232h10.228a8.241,8.241,0,0,1,8.232,8.232v9.013A8.241,8.241,0,0,1,1046.094,303.091Zm-10.228-23.647a6.41,6.41,0,0,0-6.4,6.4v9.013a6.41,6.41,0,0,0,6.4,6.4h10.228a6.41,6.41,0,0,0,6.4-6.4v-9.013a6.41,6.41,0,0,0-6.4-6.4Z" transform="translate(-1027.634 -277.614)" fill="#603c8f"/>
  </g>
  <g id="Group_4842" data-name="Group 4842" transform="translate(6.018 5.411)">
    <path id="Path_5437" data-name="Path 5437" d="M1057.52,312.549a7.328,7.328,0,1,1,7.328-7.328A7.335,7.335,0,0,1,1057.52,312.549Zm0-12.826a5.5,5.5,0,1,0,5.5,5.5A5.5,5.5,0,0,0,1057.52,299.724Z" transform="translate(-1050.192 -297.894)" fill="#603c8f"/>
  </g>
  <g id="Group_4843" data-name="Group 4843" transform="translate(19.041 4.116)">
    <path id="Path_5438" data-name="Path 5438" d="M1102.044,294.56a1.52,1.52,0,1,1-1.52-1.52A1.52,1.52,0,0,1,1102.044,294.56Z" transform="translate(-1099.003 -293.04)" fill="#603c8f"/>
  </g>
</svg>
