<svg xmlns="http://www.w3.org/2000/svg" width="32.806" height="32.806" viewBox="0 0 32.806 32.806">
  <g id="Group_5474" data-name="Group 5474" transform="translate(0)">
    <path id="Path_6730" data-name="Path 6730" d="M816.184,231.987l-4.324-2.352c-.177-.1-.783.027-.783.231v4.587c0,.2.6.329.779.233l4.516-2.235C816.555,232.353,816.365,232.091,816.184,231.987Z" transform="translate(-797.11 -215.74)" fill="#5935cc"/>
    <path id="Path_6731" data-name="Path 6731" d="M822.852,217.245H807.209a8.606,8.606,0,0,0-8.582,8.581v15.643a8.607,8.607,0,0,0,8.582,8.582h15.643a8.607,8.607,0,0,0,8.581-8.582V225.826A8.606,8.606,0,0,0,822.852,217.245Zm.96,18.7a3.939,3.939,0,0,1-3.939,3.939H809.8a3.938,3.938,0,0,1-3.939-3.939v-4.687a3.938,3.938,0,0,1,3.939-3.939h10.072a3.939,3.939,0,0,1,3.939,3.939Z" transform="translate(-798.627 -217.245)" fill="#5935cc"/>
  </g>
</svg>
