<svg id="Group_5475" data-name="Group 5475" xmlns="http://www.w3.org/2000/svg" width="32.806" height="32.806" viewBox="0 0 32.806 32.806">
  <path id="Path_6732" data-name="Path 6732" d="M699.586,229.162a3.034,3.034,0,1,0,3.034,3.033A3.038,3.038,0,0,0,699.586,229.162Z" transform="translate(-683.104 -215.793)" fill="#5935cc"/>
  <path id="Path_6733" data-name="Path 6733" d="M703.872,224.907h-7.678a3.973,3.973,0,0,0-3.968,3.968v7.679a3.972,3.972,0,0,0,3.968,3.967h7.678a3.971,3.971,0,0,0,3.968-3.967v-7.679A3.972,3.972,0,0,0,703.872,224.907Zm-3.759,12.543a4.736,4.736,0,1,1,4.736-4.736A4.742,4.742,0,0,1,700.112,237.45Zm5.012-8.663a1.128,1.128,0,1,1,1.127-1.129A1.128,1.128,0,0,1,705.125,228.787Z" transform="translate(-683.631 -216.312)" fill="#5935cc"/>
  <path id="Path_6734" data-name="Path 6734" d="M708.789,217.245H693.145a8.606,8.606,0,0,0-8.581,8.581v15.643a8.607,8.607,0,0,0,8.581,8.582h15.644a8.607,8.607,0,0,0,8.581-8.582V225.826A8.606,8.606,0,0,0,708.789,217.245Zm1.794,20.242a5.783,5.783,0,0,1-5.777,5.776h-7.678a5.783,5.783,0,0,1-5.776-5.776v-7.679a5.783,5.783,0,0,1,5.776-5.777h7.678a5.784,5.784,0,0,1,5.777,5.777Z" transform="translate(-684.564 -217.245)" fill="#5935cc"/>
</svg>
