<svg id="icon_social_twitter_color" xmlns="http://www.w3.org/2000/svg" width="24.533" height="19.888" viewBox="0 0 24.533 19.888">
  <path id="Path_5440" data-name="Path 5440" d="M1368.339,296.571Z" transform="translate(-1344.645 -296.253)" fill="#2c9dbd"/>
  <path id="Path_5441" data-name="Path 5441" d="M1307.142,298.262a3.276,3.276,0,0,1-.952.124l.017-.1a7.809,7.809,0,0,0,1.911-2.183c.072-.246-.013-.331-.014-.339l-1.6.678-1.336.6h0a5.326,5.326,0,0,0-3.878-1.6c-2.777,0-5.027,1.967-5.027,4.394a6.548,6.548,0,0,0,.2,1.658c0,.127.006-.128,0,0a15.68,15.68,0,0,1-6.12-1.817c-4.026-2.039-4.277-3.451-4.277-3.451-.632.671-.959,2.895-.318,4.637a5.781,5.781,0,0,0,1.821,2.117h0a4.272,4.272,0,0,1-1.291-.211,2.852,2.852,0,0,1-.91-.445c-.393.958.4,2.669,1.758,3.9a7.209,7.209,0,0,0,2.244,1.165l-2.266.064c-.127,2.2,4.618,3.51,4.618,3.51h0a7.757,7.757,0,0,1-4.734,1.721,9.026,9.026,0,0,1-2.586-.379,12.329,12.329,0,0,0,8.416,3.015c8.473-.445,13.256-7.729,13.483-14.881l.011.015a5.963,5.963,0,0,0,1.246-1.047,8.792,8.792,0,0,0,1.377-1.842S1307.674,298.115,1307.142,298.262Z" transform="translate(-1284.41 -295.446)" fill="#2c9dbd"/>
  <path id="Path_5442" data-name="Path 5442" d="M1368.34,296.572c.005.135,0,.013,0,0Z" transform="translate(-1344.645 -296.254)" fill="#2c9dbd"/>
</svg>
