<svg xmlns="http://www.w3.org/2000/svg" width="12" height="13.333" viewBox="0 0 12 13.333">
  <g id="icon_social_share" transform="translate(-1)">
    <path id="Path_6688" data-name="Path 6688" d="M11,9.333a2.247,2.247,0,0,0-1.133.333L4.933,7.2A1.468,1.468,0,0,0,5,6.667c0-.2-.067-.4-.067-.533L9.867,3.667A2.247,2.247,0,0,0,11,4a1.964,1.964,0,0,0,2-2A2,2,0,1,0,9,2c0,.2.067.4.067.533L4.133,5A2.247,2.247,0,0,0,3,4.667a1.964,1.964,0,0,0-2,2,1.964,1.964,0,0,0,2,2,2.247,2.247,0,0,0,1.133-.333L9.067,10.8A1.468,1.468,0,0,0,9,11.333a2,2,0,0,0,4,0A2.006,2.006,0,0,0,11,9.333Z" fill="#72748b"/>
  </g>
</svg>
