<svg xmlns="http://www.w3.org/2000/svg" width="13.75" height="14.147" viewBox="0 0 13.75 14.147">
  <path id="icon_social_like" d="M6.25,10.823V19.13a.567.567,0,0,0,.567.567h3.292a.567.567,0,0,0,.567-.567v-.085h6.8a1.874,1.874,0,0,0,1.834-1.5l.649-4.613h0a1.871,1.871,0,0,0-1.834-2.24H15.682c.02-.113.043-.224.062-.337a7.382,7.382,0,0,0,.184-3.331A1.88,1.88,0,0,0,14.083,5.55,1.9,1.9,0,0,0,12.859,6a1.863,1.863,0,0,0-.647,1.151,9.444,9.444,0,0,1-1.418,3.541h-.136a.567.567,0,0,0-.55-.434H6.817A.567.567,0,0,0,6.25,10.823Zm4.874,1a.567.567,0,0,0,.493-.284,10.956,10.956,0,0,0,1.718-4.224.723.723,0,0,1,.255-.448.768.768,0,0,1,.493-.181.746.746,0,0,1,.737.567,6.422,6.422,0,0,1-.193,2.895c-.062.34-.122.68-.176,1.021a.566.566,0,0,0,.561.658h3.119a.737.737,0,0,1,.72.882l-.649,4.61a.74.74,0,0,1-.723.593h-6.8V11.824ZM7.384,11.39H9.542v7.173H7.384Z" transform="translate(-6.25 -5.55)" fill="#72748b"/>
</svg>
